<?xml version="1.0" encoding="utf-8"?>
<!-- Generator: Adobe Illustrator 19.2.0, SVG Export Plug-In . SVG Version: 6.00 Build 0)  -->
<svg version="1.1" id="Layer_1" xmlns="http://www.w3.org/2000/svg" xmlns:xlink="http://www.w3.org/1999/xlink" x="0px" y="0px"
	 viewBox="0 0 22.3 20" style="enable-background:new 0 0 22.3 20;" xml:space="preserve">
<g>
	<path class="st0" d="M6.7,18.5c0-0.1,0-0.1,0-0.2c0-1.1,0-2.1,0-3.2c0,0,0-0.1,0-0.1c0-0.1,0-0.1-0.1-0.1c-0.4,0-0.8-0.1-1.1-0.1
		c-0.8-0.2-1.4-0.5-2-0.9c-0.4-0.3-0.7-0.6-0.9-1c-0.2-0.4-0.4-0.8-0.4-1.3c0-0.1,0-0.2,0-0.3c0-1.6,0-3.2,0-4.8
		c0-0.3,0-0.5,0.1-0.8c0.1-0.4,0.3-0.7,0.6-1.1C3.1,4.1,3.5,3.7,4,3.5c0.6-0.4,1.4-0.5,2.1-0.6c0.2,0,0.5,0,0.7,0c3,0,6,0,9,0
		c0.8,0,1.5,0.1,2.3,0.4c0.6,0.3,1.1,0.6,1.6,1.1C20,4.7,20.2,5,20.4,5.4c0.1,0.3,0.2,0.7,0.2,1c0,1.6,0,3.2,0,4.8
		c0,0.4-0.1,0.9-0.3,1.3c-0.3,0.6-0.8,1.2-1.5,1.6c-0.7,0.4-1.4,0.6-2.2,0.7c-0.2,0-0.4,0-0.6,0c-1.5,0-3,0-4.5,0
		c-0.1,0-0.2,0-0.3,0.1c-0.7,0.5-1.4,1.1-2.1,1.6c-0.5,0.4-1,0.8-1.5,1.2C7.3,18,7,18.2,6.7,18.5C6.7,18.5,6.7,18.5,6.7,18.5z"/>
</g>
</svg>
