<?xml version="1.0" encoding="utf-8"?>
<!-- Generator: Adobe Illustrator 19.2.0, SVG Export Plug-In . SVG Version: 6.00 Build 0)  -->
<svg version="1.1" id="Layer_1" xmlns="http://www.w3.org/2000/svg" xmlns:xlink="http://www.w3.org/1999/xlink" x="0px" y="0px"
	 viewBox="0 0 53.8 54.9" style="enable-background:new 0 0 53.8 54.9;" xml:space="preserve">
<style type="text/css">
	.st0{fill:#737373;}
	.st1{fill:#F3F3F3;}
	.st2{fill:#707070;}
	.st3{fill:#717171;}
	.st4{fill:#747474;}
	.st5{fill:#FEFEFE;}
	.st6{fill:#FDFDFD;}
	.st7{fill:#F2F2F2;}
	.st8{fill:#FBFBFB;}
	.st9{fill:#ECECEC;}
	.st10{fill:#727272;}
</style>
<g>
	<path class="st0" d="M45.5,9.8c0.3,0.2,0.5,0.4,0.8,0.6c0,0,0,0.1,0,0.1c0,0,0,0,0,0c-0.1,0.2-0.3,0.4-0.5,0.5
		c-5.2,5.2-10.4,10.4-15.6,15.6c-0.5,0.5-0.9,0.9-1.4,1.4c-0.1,0-0.2,0-0.3-0.1c-0.4-0.4-0.4-0.4-0.7,0.1c-0.4,0.6-0.7,1.2-1.1,1.8
		c-0.1,0.2-0.2,0.5-0.4,0.6c-1.2,1.1-2.4,2.3-3.5,3.5c-0.1,0.1-0.3,0.4-0.5,0.3c0-0.1-0.1-0.1-0.1-0.2c0.1-0.5,0.2-0.9,0.4-1.4
		c0.1-0.2,0.2-0.5,0.4-0.7c0.2-0.1,0.3-0.2,0.4-0.4c7.2-7.2,14.3-14.3,21.5-21.5c0.1-0.1,0.3-0.3,0.5-0.4
		C45.4,9.8,45.5,9.8,45.5,9.8z"/>
	<path class="st0" d="M47.5,11.8c0.2,0.2,0.4,0.4,0.6,0.7c0,0,0,0.1,0,0.1c-0.1,0.2-0.3,0.3-0.5,0.5c-6.8,6.8-13.6,13.6-20.3,20.3
		c-0.1,0.1-0.3,0.3-0.4,0.5c-0.2,0.3-0.5,0.3-0.8,0.4c-0.5,0.2-1,0.4-1.6,0.4c-0.2-0.3,0.1-0.4,0.2-0.5c1-1,1.9-2,2.9-2.9
		c0.1-0.1,0.3-0.3,0.4-0.4c0.2-0.2,0.5-0.2,0.7-0.4c0.3-0.1,0.6-0.3,0.9-0.5c0.3-0.2,0.4-0.3,0.2-0.6c0,0,0-0.1,0-0.1
		c0.1-0.2,0.3-0.4,0.5-0.5c5.3-5.3,10.5-10.5,15.8-15.8c0.4-0.4,0.8-0.8,1.2-1.2C47.4,11.6,47.5,11.7,47.5,11.8z"/>
	<path class="st0" d="M42.1,11.4c0.4-0.4,0.8-0.7,1.2-1.1c0.5-0.5,1.1-0.8,1.8-0.7c0,0,0,0.1,0,0.1c-0.1,0.2-0.3,0.3-0.4,0.5
		C37.8,17.2,30.9,24.1,24,31c-0.2,0.2-0.3,0.5-0.6,0.4c-0.1-0.3,0.1-0.6,0.2-0.8c0.2-0.5,0.5-1,0.8-1.5c0.2-0.3,0.3-0.7,0.6-0.9
		c0.2-0.1,0.3-0.2,0.5-0.4c3.6-3.6,7.2-7.2,10.9-10.9c0.1-0.1,0.3-0.3,0.4-0.5c0.6-0.8,1.4-1.4,2.1-2c0.7-0.7,1.4-1.3,2.1-1.9
		C41.2,12.1,41.6,11.7,42.1,11.4z"/>
	<path class="st0" d="M48.4,12.8c0.2,0.2,0.4,0.5,0.6,0.7c0.1,0.1,0.1,0.1,0.1,0.2c-0.7,0.6-1.3,1.3-1.9,1.9
		C41.7,21,36.3,26.4,30.9,31.9c-0.1,0.1-0.3,0.3-0.4,0.5c-0.2,0.3-0.5,0.3-0.8,0.5c-0.5,0.3-1.1,0.5-1.6,0.7
		c-0.2,0.1-0.3,0.2-0.5,0.1c-0.1-0.1,0-0.2,0-0.3c0.1-0.1,0.2-0.3,0.4-0.4c6.6-6.6,13.2-13.2,19.9-19.9c0.1-0.1,0.3-0.3,0.5-0.4
		C48.3,12.7,48.4,12.7,48.4,12.8z"/>
	<path class="st0" d="M46.6,10.7c0.2,0.2,0.4,0.4,0.6,0.7c0.1,0.1,0.2,0.1,0.1,0.2c-1.3,1.2-2.5,2.5-3.8,3.8
		c-4.4,4.4-8.8,8.8-13.2,13.2c-0.2,0.2-0.3,0.4-0.5,0.5c0,0-0.1,0-0.1,0c-0.3-0.2-0.5-0.4-0.7-0.7c0,0,0-0.1,0-0.1
		c0.1-0.2,0.2-0.3,0.4-0.5C34.9,22.2,40.5,16.6,46,11c0.1-0.1,0.2-0.3,0.4-0.3C46.5,10.7,46.5,10.7,46.6,10.7z"/>
	<path class="st0" d="M6.1,19.6c0-0.5,0-0.9,0-1.4c0,0,0-0.1,0-0.1c0.1-0.2,0.2-0.3,0.4-0.4c4.2-4.2,8.4-8.4,12.6-12.6
		c0.1-0.1,0.3-0.3,0.4-0.4c0,0,0.1,0,0.1,0c0.5,0,0.9,0,1.4,0c0,0.2-0.2,0.3-0.3,0.5c-3.4,3.4-6.8,6.8-10.2,10.2
		c-0.1,0.1-0.2,0.2-0.3,0.3c0,0-0.1,0-0.1,0c-0.7,0.1-0.7-0.1-0.7,0.7c0,0,0,0.1,0,0.1c-0.9,1-1.9,2-2.9,3
		C6.3,19.5,6.2,19.6,6.1,19.6z"/>
	<path class="st0" d="M17.5,4.8c0.5-0.1,1-0.2,1.5-0.1c0,0.2-0.2,0.3-0.3,0.5c-4,4.1-8.1,8.1-12.1,12.1c-0.1,0.1-0.2,0.3-0.5,0.3
		c0-0.5,0-0.9,0-1.4c0,0,0-0.1,0-0.1c0.1-0.2,0.3-0.3,0.5-0.5c3.4-3.4,6.8-6.8,10.2-10.2c0.2-0.2,0.3-0.3,0.5-0.5
		C17.3,4.8,17.4,4.8,17.5,4.8z"/>
	<path class="st0" d="M49.3,13.9c0.1,0.4,0.1,0.8,0.1,1.2c0.1,0.2-0.1,0.4-0.2,0.6c-0.7,0.8-1.6,1.5-2.4,2.3
		c-0.7,0.6-1.4,1.2-2.1,1.9c-2.2,2-4.3,4-6.5,5.9c-1.6,1.5-3.2,2.9-4.8,4.4c-0.6,0.5-1.1,1.1-1.7,1.5c-0.1,0.1-0.3,0.3-0.5,0.2
		c-0.1-0.3,0.1-0.4,0.3-0.5c0.9-0.9,1.7-1.7,2.6-2.6c4.8-4.8,9.6-9.6,14.4-14.4c0.2-0.2,0.3-0.4,0.6-0.5
		C49.2,13.9,49.3,13.9,49.3,13.9z"/>
	<path class="st0" d="M21.5,4.7c0.5,0,0.9,0,1.4,0c0,0.2-0.1,0.2-0.1,0.3C21.8,6,20.9,6.9,20,7.8c0,0-0.1,0.1-0.2,0.1
		c0,0-0.1,0-0.1,0c-1,0.1-1,0.1-1.1,1.1c0,0,0,0.1,0,0.1c-0.1,0.2-0.2,0.3-0.3,0.4c-1.9,1.9-3.9,3.9-5.8,5.8
		c-0.1,0.1-0.2,0.3-0.4,0.3c0,0-0.1,0-0.1,0c-0.4,0-0.8,0.1-1.2,0c-0.2-0.1-0.1-0.2-0.1-0.3c0.1-0.1,0.2-0.2,0.3-0.4
		c3.3-3.3,6.7-6.7,10-10c0.1-0.1,0.2-0.3,0.4-0.3C21.4,4.7,21.5,4.7,21.5,4.7z"/>
	<path class="st0" d="M6.1,15.7C6,15.1,6.3,14.6,6.5,14c0.1-0.4,0.2-0.7,0.5-0.9c0.2-0.1,0.3-0.2,0.4-0.3C9,11.2,10.6,9.6,12.2,8
		c0.1-0.1,0.3-0.2,0.3-0.4c0.4-0.5,0.8-0.8,1.4-1c0.8-0.5,1.6-1,2.5-1.3c0.1,0.3-0.2,0.4-0.3,0.6c-2.7,2.7-5.3,5.4-8,8
		c-0.5,0.5-1,1-1.5,1.5C6.4,15.5,6.3,15.7,6.1,15.7z"/>
	<path class="st1" d="M43,7.9c-0.7,0.7-1.5,1.5-2.2,2.2c-0.2,0.2-0.3,0.3-0.5,0.5c-0.2,0.1-0.3,0.3-0.4,0.4
		c-0.9,0.9-1.8,1.7-2.7,2.5c-0.1,0.2-0.3,0.4-0.5,0.6c-4.4,4.4-8.8,8.8-13.1,13.1c-0.2,0.2-0.4,0.3-0.5,0.6c0,0.2-0.2,0.3-0.1,0.5
		c0.1-0.1,0.3-0.2,0.4-0.3C30,21.5,36.7,14.8,43.4,8.1C43.2,8,43.1,8,43,7.9z"/>
	<path class="st0" d="M40.2,40.4c0,0.5,0,0.9,0,1.4c0,0,0,0.1,0,0.1c-2.1,2.2-4.2,4.3-6.4,6.4c0,0-0.1,0-0.1,0c-0.5,0-0.9,0-1.4,0
		c0-0.3,0.2-0.4,0.3-0.5c0.9-0.9,1.8-1.8,2.7-2.7c0.1-0.1,0.3-0.3,0.4-0.4c0.3-0.3,0.6-0.6,0.9-0.9c0.2-0.1,0.3-0.2,0.4-0.4
		c0.9-0.9,1.8-1.8,2.7-2.7C39.9,40.5,40,40.3,40.2,40.4z"/>
	<path class="st1" d="M31.8,33.2c6.4-6.5,12.9-12.9,19.3-19.3c0-0.2,0-0.3,0-0.5c-0.6,0.6-1.1,1.2-1.7,1.7c-0.1,0.3-0.4,0.6-0.6,0.8
		c-1.4,1.3-2.8,2.6-4.2,3.9c0,0.2-0.2,0.2-0.3,0.3c-0.7,0.6-1.3,1.2-1.9,1.8c-3.5,3.5-6.9,6.9-10.4,10.4c-0.5,0.5-1,1-1.5,1.5
		c-0.1,0.1-0.3,0.2-0.2,0.5c0.5-0.1,0.9-0.2,1.1-0.6C31.4,33.4,31.7,33.3,31.8,33.2z"/>
	<path class="st0" d="M35.8,48c-0.5,0.1-1,0.2-1.5,0.2c-0.1,0-0.1,0-0.2,0c0.1-0.3,0.4-0.3,0.7-0.6c0.7-0.7,1.4-1.4,2.1-2.1
		c1-1,1.9-1.9,2.9-2.9c0.2-0.2,0.3-0.6,0.6-0.7c0,0.1,0,0.1,0,0.2c-0.1,0.5-0.2,1-0.2,1.5c0,0.2,0,0.5-0.2,0.6c-0.1,0-0.1,0-0.2,0.1
		c-1.1,1.1-2.1,2.1-3.2,3.2c-0.1,0.1-0.1,0.1-0.1,0.2C36.2,48,36,48,35.8,48z"/>
	<path class="st1" d="M44.9,8.3c-0.1,0-0.2,0-0.3,0c-3.1,3.1-6.1,6.1-9.2,9.2c-0.1,0.1-0.3,0.2-0.3,0.4c0.1,0,0.2,0,0.3,0
		c0.4-0.4,0.9-0.8,1.2-1.3c0.4-0.3,0.7-0.7,1.1-1c1.5-1.4,2.9-2.7,4.4-4.1c-0.1-0.2,0.1-0.3,0.2-0.4c0.9-0.9,1.8-1.8,2.7-2.7
		C45,8.3,45,8.3,44.9,8.3z"/>
	<path class="st2" d="M6.1,17.6c0.1-0.1,0.2-0.1,0.3-0.2c4.1-4.1,8.3-8.3,12.4-12.4c0.1-0.1,0.1-0.2,0.2-0.3c0,0,0.1,0,0.1,0
		c0.1-0.1,0.3-0.1,0.4,0c-0.1,0.1-0.1,0.2-0.2,0.3c-4.3,4.3-8.6,8.6-12.9,12.9C6.3,18,6.2,18,6.1,18.1C5.9,18,6,17.9,6,17.7
		C6.1,17.7,6.1,17.6,6.1,17.6z"/>
	<path class="st2" d="M35.1,17.8c0.5-0.4,1-0.9,1.5-1.3c0.2,0.2,0,0.2-0.1,0.3c-3.7,3.8-7.5,7.5-11.3,11.3c-0.1,0.1-0.1,0.3-0.3,0.1
		c-0.1-0.2,0.1-0.2,0.1-0.3c0.1-0.2,0.2-0.3,0.4-0.5c1.5-1.7,3.2-3.3,4.9-4.9c0.4-0.4,0.9-0.8,1.3-1.3C32.8,20.1,34,19,35.1,17.8z"
		/>
	<path class="st2" d="M6.1,15.7c0.1-0.1,0.2-0.2,0.4-0.3c3.2-3.2,6.4-6.4,9.7-9.7c0.1-0.1,0.3-0.2,0.4-0.4c0.1-0.1,0.2-0.1,0.3-0.2
		C16.9,5,17,4.8,17.2,5c0,0.1-0.1,0.2-0.2,0.3C13.4,8.9,9.8,12.4,6.2,16c0,0-0.1,0.1-0.2,0.1C5.9,16,6,15.9,6,15.8
		C6.1,15.7,6.1,15.7,6.1,15.7z"/>
	<path class="st2" d="M21.4,4.7c-0.1,0.1-0.2,0.3-0.4,0.4c-3.4,3.4-6.7,6.7-10.1,10.1c-0.1,0.1-0.2,0.3-0.4,0.4c0,0-0.1,0.1-0.1,0.1
		c-0.1,0-0.3,0-0.4-0.1c0.1-0.1,0.2-0.3,0.4-0.4c3.4-3.4,6.7-6.7,10.1-10.1c0.1-0.1,0.2-0.3,0.4-0.4c0,0,0.1,0,0.1,0
		C21.2,4.6,21.3,4.6,21.4,4.7z"/>
	<path class="st0" d="M40.3,39.8c0,0,0,0.1,0,0.1c-0.1,0.2-0.2,0.3-0.3,0.4c-0.8,0.8-1.6,1.6-2.4,2.4c-0.1,0.1-0.3,0.4-0.5,0.2
		c0-0.4,0.1-0.9,0.1-1.3c0,0,0-0.1,0-0.1c0.5-0.7,1.2-1.2,1.8-1.8c0.3-0.3,0.6-0.6,1-1c0.1-0.1,0.2-0.3,0.4-0.2
		C40.3,38.9,40.3,39.3,40.3,39.8z"/>
	<path class="st0" d="M31.8,48.2c-0.5,0-0.9,0-1.4,0c0-0.1,0-0.2,0.1-0.3c1-1,1.9-2,3-2.9c0,0,0.1,0,0.1,0c0.4,0,0.9-0.1,1.3-0.1
		c0.2,0.1,0.1,0.3,0,0.4c-1,1-1.9,2-3,2.9C31.9,48.3,31.9,48.3,31.8,48.2z"/>
	<path class="st0" d="M33.2,4.7c0.5,0,1,0,1.5,0c0.1-0.1,0.2,0,0.2,0.1c-0.9,0.5-1.5,1.4-2.2,2c-0.4,0.4-0.7,0.8-1.2,1.1
		c0,0-0.1,0-0.1,0c-0.4,0-0.8,0.1-1.2,0c-0.3-0.2,0-0.4,0.1-0.5c0.6-0.7,1.3-1.3,2-2c0.3-0.3,0.5-0.6,0.8-0.8
		C33.1,4.7,33.1,4.7,33.2,4.7z"/>
	<path class="st0" d="M31.2,4.7c0.5,0,0.9,0,1.4,0c0,0.2-0.1,0.2-0.1,0.3c-0.9,0.9-1.8,1.8-2.7,2.7c0,0-0.1,0.1-0.2,0.1
		c0,0-0.1,0-0.1,0c-0.4,0-0.8,0.1-1.2,0c-0.3-0.3,0-0.4,0.1-0.5c0.7-0.7,1.3-1.3,2-2c0.2-0.2,0.4-0.5,0.7-0.7
		C31.1,4.7,31.2,4.7,31.2,4.7z"/>
	<path class="st0" d="M16.3,48.2c-0.5,0-0.9,0-1.4,0c0-0.2,0.1-0.2,0.1-0.3c0.9-0.9,1.8-1.8,2.7-2.7c0,0,0.1-0.1,0.2-0.1
		c0,0,0.1,0,0.1,0c0.4,0,0.8-0.1,1.2,0c0.3,0.3,0,0.4-0.1,0.5c-0.7,0.7-1.3,1.3-2,2c-0.2,0.2-0.4,0.5-0.7,0.7
		C16.4,48.3,16.3,48.3,16.3,48.2z"/>
	<path class="st0" d="M6.1,25.4c0-0.5,0-0.9,0-1.4c0,0,0-0.1,0-0.1c0.9-1,1.9-1.9,2.8-2.9c0.1-0.1,0.2-0.3,0.4,0
		c0.1,0.4,0,0.8,0,1.2c0,0,0,0.1,0,0.1c-0.4,0.6-0.9,1-1.4,1.5c-0.4,0.5-0.9,0.9-1.3,1.3C6.4,25.2,6.3,25.4,6.1,25.4z"/>
	<path class="st0" d="M26,48.2c-0.5,0-0.9,0-1.4,0c0-0.2,0.1-0.2,0.1-0.3c0.9-0.9,1.8-1.8,2.7-2.7c0,0,0.1-0.1,0.2-0.1
		c0,0,0.1,0,0.1,0c0.4,0,0.8-0.1,1.2,0c0.3,0.3,0,0.4-0.1,0.5c-0.7,0.7-1.3,1.3-2,2c-0.2,0.2-0.4,0.5-0.7,0.7
		C26.1,48.3,26,48.3,26,48.2z"/>
	<path class="st0" d="M24,48.2c-0.5,0-0.9,0-1.4,0c0-0.2,0.1-0.2,0.1-0.3c0.9-0.9,1.8-1.8,2.7-2.7c0,0,0.1-0.1,0.2-0.1
		c0,0,0.1,0,0.1,0c0.4,0,0.8-0.1,1.2,0c0.3,0.3,0,0.4-0.1,0.5c-0.7,0.7-1.3,1.3-2,2c-0.2,0.2-0.4,0.5-0.7,0.7
		C24.1,48.3,24.1,48.3,24,48.2z"/>
	<path class="st0" d="M22.1,48.2c-0.5,0-0.9,0-1.4,0c0-0.2,0.1-0.2,0.1-0.3c0.9-0.9,1.8-1.8,2.7-2.7c0,0,0.1-0.1,0.2-0.1
		c0,0,0.1,0,0.1,0c0.4,0,0.8-0.1,1.2,0c0.3,0.3,0,0.4-0.1,0.5c-0.7,0.7-1.3,1.3-2,2c-0.2,0.2-0.4,0.5-0.7,0.7
		C22.2,48.3,22.1,48.3,22.1,48.2z"/>
	<path class="st0" d="M20.1,48.2c-0.5,0-0.9,0-1.4,0c0-0.2,0.1-0.2,0.1-0.3c0.9-0.9,1.8-1.8,2.7-2.7c0,0,0.1-0.1,0.2-0.1
		c0,0,0.1,0,0.1,0c0.4,0,0.8-0.1,1.2,0c0.3,0.3,0,0.4-0.1,0.5c-0.7,0.7-1.3,1.3-2,2c-0.2,0.2-0.4,0.5-0.7,0.7
		C20.2,48.3,20.2,48.3,20.1,48.2z"/>
	<path class="st0" d="M18.2,48.2c-0.5,0-0.9,0-1.4,0c0-0.2,0.1-0.2,0.1-0.3c0.9-0.9,1.8-1.8,2.7-2.7c0,0,0.1-0.1,0.2-0.1
		c0,0,0.1,0,0.1,0c0.4,0,0.8-0.1,1.2,0c0.3,0.3,0,0.4-0.1,0.5c-0.7,0.7-1.3,1.3-2,2c-0.2,0.2-0.4,0.5-0.7,0.7
		C18.3,48.3,18.2,48.3,18.2,48.2z"/>
	<path class="st0" d="M14.3,48.2c-0.5,0-0.9,0-1.4,0c0-0.2,0.1-0.2,0.1-0.3c0.9-0.9,1.8-1.8,2.7-2.7c0,0,0.1-0.1,0.2-0.1
		c0,0,0.1,0,0.1,0c0.4,0,0.8-0.1,1.2,0c0.3,0.3,0,0.4-0.1,0.5c-0.7,0.7-1.3,1.3-2,2c-0.2,0.2-0.4,0.5-0.7,0.7
		C14.4,48.3,14.4,48.3,14.3,48.2z"/>
	<path class="st0" d="M6.1,29.3c0-0.5,0-0.9,0-1.4c0,0,0-0.1,0-0.1c0.9-1,1.9-1.9,2.8-2.9c0.1-0.1,0.2-0.3,0.4,0
		c0.1,0.4,0,0.8,0,1.2c0,0,0,0.1,0,0.1c-0.4,0.6-0.9,1-1.4,1.5C7.4,28.1,7,28.6,6.6,29C6.4,29.1,6.3,29.3,6.1,29.3z"/>
	<path class="st0" d="M6.1,35.1c0-0.5,0-0.9,0-1.4c0,0,0-0.1,0-0.1c0.9-1,1.9-1.9,2.8-2.9c0.1-0.1,0.2-0.3,0.4,0
		c0.1,0.4,0,0.8,0,1.2c0,0,0,0.1,0,0.1c-0.4,0.6-0.9,1-1.4,1.5C7.4,34,7,34.4,6.6,34.8C6.4,35,6.3,35.1,6.1,35.1z"/>
	<path class="st0" d="M6.1,21.5c0-0.5,0-0.9,0-1.4c0,0,0-0.1,0-0.1c0.9-1,1.9-1.9,2.8-2.9c0.1-0.1,0.2-0.3,0.4,0
		c0.1,0.4,0,0.8,0,1.2c0,0,0,0.1,0,0.1c-0.4,0.6-0.9,1-1.4,1.5c-0.4,0.5-0.9,0.9-1.3,1.3C6.4,21.4,6.3,21.5,6.1,21.5z"/>
	<path class="st0" d="M40.3,32c0,0,0,0.1,0,0.1c-0.1,0.2-0.2,0.3-0.3,0.4c-0.8,0.8-1.6,1.6-2.3,2.3c-0.1,0.1-0.3,0.4-0.5,0.2
		c-0.1-0.4,0-0.8,0-1.2c0,0,0-0.1,0-0.1c0.4-0.6,0.9-1,1.4-1.5c0.4-0.5,0.9-0.9,1.3-1.3c0.1-0.1,0.2-0.3,0.5-0.3
		C40.3,31.1,40.3,31.5,40.3,32z"/>
	<path class="st0" d="M6.1,27.3c0-0.5,0-0.9,0-1.4c0,0,0-0.1,0-0.1c0.9-1,1.9-1.9,2.8-2.9c0.1-0.1,0.2-0.3,0.4,0
		c0.1,0.4,0,0.8,0,1.2c0,0,0,0.1,0,0.1c-0.4,0.6-0.9,1-1.4,1.5c-0.4,0.5-0.9,0.9-1.3,1.3C6.4,27.2,6.3,27.4,6.1,27.3z"/>
	<path class="st0" d="M6.1,37c0-0.5,0-0.9,0-1.4c0,0,0-0.1,0-0.1c0.9-1,1.9-1.9,2.8-2.9c0.1-0.1,0.2-0.3,0.4,0c0.1,0.4,0,0.8,0,1.2
		c0,0,0,0.1,0,0.1c-0.4,0.6-0.9,1-1.4,1.5c-0.4,0.5-0.9,0.9-1.3,1.3C6.4,36.9,6.3,37.1,6.1,37z"/>
	<path class="st0" d="M40.3,33.9c0,0,0,0.1,0,0.1c-0.1,0.2-0.2,0.3-0.3,0.4c-0.8,0.8-1.6,1.6-2.3,2.3c-0.1,0.1-0.3,0.4-0.5,0.2
		c-0.1-0.4,0-0.8,0-1.2c0,0,0-0.1,0-0.1c0.4-0.6,0.9-1,1.4-1.5c0.4-0.5,0.9-0.9,1.3-1.3c0.1-0.1,0.2-0.3,0.5-0.3
		C40.3,33,40.3,33.5,40.3,33.9z"/>
	<path class="st0" d="M6.1,31.2c0-0.5,0-0.9,0-1.4c0,0,0-0.1,0-0.1c0.9-1,1.9-1.9,2.8-2.9c0.1-0.1,0.2-0.3,0.4,0
		c0.1,0.4,0,0.8,0,1.2c0,0,0,0.1,0,0.1c-0.4,0.6-0.9,1-1.4,1.5c-0.4,0.5-0.9,0.9-1.3,1.3C6.4,31.1,6.3,31.3,6.1,31.2z"/>
	<path class="st0" d="M23.5,4.7c0.5,0,0.9,0,1.4,0c0,0.2-0.1,0.2-0.1,0.3c-0.9,0.9-1.8,1.8-2.7,2.7c0,0-0.1,0.1-0.2,0.1
		c0,0-0.1,0-0.1,0c-0.4,0-0.8,0.1-1.2,0c-0.3-0.3,0-0.4,0.1-0.5c0.7-0.7,1.3-1.3,2-2c0.2-0.2,0.4-0.5,0.7-0.7
		C23.4,4.7,23.4,4.7,23.5,4.7z"/>
	<path class="st0" d="M40.3,28.1c0,0,0,0.1,0,0.1c-0.1,0.2-0.2,0.3-0.3,0.4c-0.8,0.8-1.6,1.6-2.3,2.3c-0.1,0.1-0.3,0.4-0.5,0.2
		c-0.1-0.4,0-0.8,0-1.2c0,0,0-0.1,0-0.1c0.4-0.6,0.9-1,1.4-1.5c0.4-0.5,0.9-0.9,1.3-1.3c0.1-0.1,0.2-0.3,0.5-0.3
		C40.3,27.2,40.3,27.7,40.3,28.1z"/>
	<path class="st0" d="M29.9,48.2c-0.5,0-0.9,0-1.4,0c0-0.2,0.1-0.2,0.1-0.3c0.9-0.9,1.8-1.8,2.7-2.7c0,0,0.1-0.1,0.2-0.1
		c0,0,0.1,0,0.1,0c0.4,0,0.8-0.1,1.2,0c0.3,0.3,0,0.4-0.1,0.5c-0.7,0.7-1.3,1.3-2,2c-0.2,0.2-0.4,0.5-0.7,0.7
		C30,48.3,29.9,48.3,29.9,48.2z"/>
	<path class="st0" d="M6.1,23.4c0-0.5,0-0.9,0-1.4C6,22,6,22,6,22c0.9-1,1.9-1.9,2.8-2.9c0.1-0.1,0.2-0.3,0.4,0c0.1,0.4,0,0.8,0,1.2
		c0,0,0,0.1,0,0.1c-0.4,0.6-0.9,1-1.4,1.5c-0.4,0.5-0.9,0.9-1.3,1.3C6.4,23.3,6.3,23.5,6.1,23.4z"/>
	<path class="st0" d="M25.4,4.7c0.5,0,0.9,0,1.4,0c0,0.2-0.1,0.2-0.1,0.3c-0.9,0.9-1.8,1.8-2.7,2.7c0,0-0.1,0.1-0.2,0.1
		c0,0-0.1,0-0.1,0c-0.4,0-0.8,0.1-1.2,0c-0.3-0.3,0-0.4,0.1-0.5c0.7-0.7,1.3-1.3,2-2c0.2-0.2,0.4-0.5,0.7-0.7
		C25.3,4.7,25.4,4.7,25.4,4.7z"/>
	<path class="st0" d="M40.3,37.8c0,0,0,0.1,0,0.1c-0.1,0.2-0.2,0.3-0.3,0.4c-0.8,0.8-1.6,1.6-2.3,2.3c-0.1,0.1-0.3,0.4-0.5,0.2
		c-0.1-0.4,0-0.8,0-1.2c0,0,0-0.1,0-0.1c0.4-0.6,0.9-1,1.4-1.5c0.4-0.5,0.9-0.9,1.3-1.3c0.1-0.1,0.2-0.3,0.5-0.3
		C40.3,36.9,40.3,37.4,40.3,37.8z"/>
	<path class="st0" d="M6.1,40.9c0-0.5,0-0.9,0-1.4c0,0,0-0.1,0-0.1c0.9-1,1.9-1.9,2.8-2.9c0.1-0.1,0.2-0.3,0.4,0
		c0.1,0.4,0,0.8,0,1.2c0,0,0,0.1,0,0.1c-0.4,0.6-0.9,1-1.4,1.5c-0.4,0.5-0.9,0.9-1.3,1.3C6.4,40.8,6.3,41,6.1,40.9z"/>
	<path class="st0" d="M40.3,30.1c0,0,0,0.1,0,0.1c-0.1,0.2-0.2,0.3-0.3,0.4c-0.8,0.8-1.6,1.6-2.3,2.3c-0.1,0.1-0.3,0.4-0.5,0.2
		c-0.1-0.4,0-0.8,0-1.2c0,0,0-0.1,0-0.1c0.4-0.6,0.9-1,1.4-1.5c0.4-0.5,0.9-0.9,1.3-1.3c0.1-0.1,0.2-0.3,0.5-0.3
		C40.3,29.1,40.3,29.6,40.3,30.1z"/>
	<path class="st0" d="M27.3,4.7c0.5,0,0.9,0,1.4,0c0,0.2-0.1,0.2-0.1,0.3c-0.9,0.9-1.8,1.8-2.7,2.7c0,0-0.1,0.1-0.2,0.1
		c0,0-0.1,0-0.1,0c-0.4,0-0.8,0.1-1.2,0c-0.3-0.3,0-0.4,0.1-0.5c0.7-0.7,1.3-1.3,2-2c0.2-0.2,0.4-0.5,0.7-0.7
		C27.3,4.7,27.3,4.7,27.3,4.7z"/>
	<path class="st0" d="M6.1,33.2c0-0.5,0-0.9,0-1.4c0,0,0-0.1,0-0.1c0.9-1,1.9-1.9,2.8-2.9c0.1-0.1,0.2-0.3,0.4,0
		c0.1,0.4,0,0.8,0,1.2c0,0,0,0.1,0,0.1c-0.4,0.6-0.9,1-1.4,1.5C7.4,32,7,32.4,6.6,32.9C6.4,33,6.3,33.2,6.1,33.2z"/>
	<path class="st0" d="M6.1,39c0-0.5,0-0.9,0-1.4c0,0,0-0.1,0-0.1c0.9-1,1.9-1.9,2.8-2.9c0.1-0.1,0.2-0.3,0.4,0c0.1,0.4,0,0.8,0,1.2
		c0,0,0,0.1,0,0.1c-0.4,0.6-0.9,1-1.4,1.5c-0.4,0.5-0.9,0.9-1.3,1.3C6.4,38.8,6.3,39,6.1,39z"/>
	<path class="st0" d="M40.3,35.9c0,0,0,0.1,0,0.1c-0.1,0.2-0.2,0.3-0.3,0.4c-0.8,0.8-1.6,1.6-2.3,2.3c-0.1,0.1-0.3,0.4-0.5,0.2
		c-0.1-0.4,0-0.8,0-1.2c0,0,0-0.1,0-0.1c0.4-0.6,0.9-1,1.4-1.5c0.4-0.5,0.9-0.9,1.3-1.3c0.1-0.1,0.2-0.3,0.5-0.3
		C40.3,35,40.3,35.4,40.3,35.9z"/>
	<path class="st0" d="M29.3,4.7c0.5,0,0.9,0,1.4,0c0,0.2-0.1,0.2-0.1,0.3c-0.9,0.9-1.8,1.8-2.7,2.7c0,0-0.1,0.1-0.2,0.1
		c0,0-0.1,0-0.1,0c-0.4,0-0.8,0.1-1.2,0c-0.3-0.3,0-0.4,0.1-0.5c0.7-0.7,1.3-1.3,2-2c0.2-0.2,0.4-0.5,0.7-0.7
		C29.2,4.7,29.2,4.7,29.3,4.7z"/>
	<path class="st0" d="M27.9,48.2c-0.5,0-0.9,0-1.4,0c0-0.2,0.1-0.2,0.1-0.3c0.9-0.9,1.8-1.8,2.7-2.7c0,0,0.1-0.1,0.2-0.1
		c0,0,0.1,0,0.1,0c0.4,0,0.8-0.1,1.2,0c0.3,0.3,0,0.4-0.1,0.5c-0.7,0.7-1.3,1.3-2,2c-0.2,0.2-0.4,0.5-0.7,0.7
		C28,48.3,28,48.3,27.9,48.2z"/>
	<path class="st0" d="M40.3,10.6c0,0.1,0,0.2-0.1,0.3c-1,0.9-1.9,1.9-3,2.7c-0.3-0.4-0.1-0.8-0.1-1.1c0-0.1,0-0.1,0-0.2
		c0.3-0.5,0.7-0.8,1.1-1.2c0.5-0.5,0.9-0.9,1.4-1.4c0.1-0.1,0.2-0.3,0.5-0.3c0.1,0,0.1,0.2,0.1,0.2C40.2,10,40.2,10.3,40.3,10.6z"/>
	<path class="st0" d="M6.1,42.7c0-0.4,0-0.8,0-1.2c0,0,0-0.1,0-0.1c0.9-1,1.9-1.9,2.8-2.9c0.1-0.1,0.2-0.3,0.4,0
		c0.1,0.4,0,0.8,0,1.2c0,0,0,0.1,0,0.1c-0.4,0.6-0.9,1-1.4,1.5c-0.4,0.4-0.8,0.8-1.2,1.2C6.5,42.7,6.4,42.8,6.1,42.7
		C6.1,42.8,6.1,42.8,6.1,42.7z"/>
	<path class="st0" d="M12.4,48.2c-0.5,0-0.9-0.1-1.4-0.1c-0.1,0-0.1,0-0.1-0.1c0.9-0.7,1.6-1.5,2.4-2.3c0.3-0.2,0.5-0.5,0.8-0.7
		c0,0,0.1,0,0.1,0c0.4,0,0.8-0.1,1.2,0c0.3,0.2,0,0.4-0.1,0.5c-0.6,0.7-1.3,1.3-2,2c-0.3,0.3-0.5,0.6-0.8,0.8
		C12.5,48.3,12.4,48.3,12.4,48.2z"/>
	<path class="st0" d="M35.1,4.8c0.3,0.1,0.6,0.1,0.9,0.2c0,0,0.1,0.1,0.1,0.1c0,0.1,0,0.1-0.1,0.2c-0.9,0.9-1.7,1.8-2.7,2.6
		c0,0-0.1,0-0.1,0c-0.4,0-0.8,0.1-1.2,0c-0.3-0.2-0.1-0.3,0-0.4c0.9-0.9,1.8-1.9,2.8-2.7C35,4.7,35.1,4.7,35.1,4.8z"/>
	<path class="st0" d="M6.5,44.2c-0.1-0.3-0.2-0.6-0.3-0.9c-0.1-0.1-0.1-0.2-0.1-0.2c0.3-0.1,0.4-0.3,0.6-0.5c0.7-0.7,1.3-1.4,2-2
		c0.1-0.1,0.3-0.4,0.5-0.1c0.1,0.4,0,0.8,0,1.2c0,0,0,0.1,0,0.1c-0.8,0.9-1.7,1.9-2.7,2.6C6.5,44.4,6.5,44.3,6.5,44.2z"/>
	<path class="st0" d="M10.6,48c-0.4-0.1-0.7-0.3-1.1-0.4c0,0,0-0.1,0-0.1c0.7-0.7,1.4-1.4,2.1-2.1c0.1-0.1,0.3-0.3,0.4-0.4
		c0,0,0.1,0,0.1,0c0.4,0,0.8-0.1,1.2,0c0.3,0.2,0.1,0.3,0,0.4c-0.9,0.9-1.7,1.8-2.6,2.6C10.7,48.1,10.7,48.1,10.6,48z"/>
	<path class="st0" d="M39.6,8c0.1,0.3,0.3,0.6,0.4,1c0,0,0,0.1,0,0.1c-0.8,0.9-1.7,1.7-2.5,2.6c-0.1,0.1-0.2,0.3-0.4,0
		c-0.1-0.4,0-0.8-0.1-1.1c0-0.1,0-0.2,0-0.4c0.2,0,0.3-0.2,0.5-0.3c0.7-0.6,1.3-1.4,2-1.9C39.5,8,39.5,8,39.6,8z"/>
	<path class="st0" d="M36.6,5.2c0.3,0.2,0.6,0.3,0.9,0.5c0,0,0,0.1,0,0.1c-0.7,0.8-1.5,1.6-2.3,2.3c0,0-0.1,0-0.1,0
		C34.7,8,34.3,8,34,7.9c-0.2-0.2,0-0.3,0.1-0.4c0.8-0.8,1.5-1.6,2.4-2.3C36.5,5.1,36.5,5.2,36.6,5.2z"/>
	<path class="st0" d="M30.4,34.2c0.4-0.1,0.8-0.3,1.2-0.6c0.4-0.2,0.9-0.4,1.2-0.7c0.3-0.3,0.6-0.3,1-0.1c0,0,0,0.1,0,0.1
		c-0.6,0.6-1.2,1.2-1.8,1.8c-0.1,0.1-0.3,0.3-0.4,0.4c0,0-0.1,0-0.2,0c-0.4,0-0.9,0-1.3,0c-0.2,0-0.3,0-0.5,0
		c-0.2,0-0.5,0.1-0.6-0.2c0-0.2,0.3-0.3,0.5-0.4C29.7,34.5,30,34.2,30.4,34.2z"/>
	<path class="st0" d="M7.2,45.6c-0.1-0.2-0.3-0.5-0.4-0.7c-0.1-0.1-0.1-0.1-0.1-0.2c0.7-0.7,1.3-1.3,2-2c0.1-0.1,0.3-0.4,0.5-0.3
		c0.1,0.1,0.1,0.2,0.2,0.3c0,0.2,0.1,0.4,0.2,0.7c0,0.1,0,0.1,0,0.2c-0.7,0.8-1.5,1.5-2.2,2.3C7.2,45.7,7.2,45.7,7.2,45.6z"/>
	<path class="st0" d="M18.8,32.7c0.5,0,0.9,0,1.4,0c0,0.1,0,0.2-0.1,0.2c-0.7,0.7-1.4,1.5-2.2,2.2c0,0-0.1,0-0.1,0
		c-0.4,0-0.8,0.1-1.2,0c-0.3-0.2-0.1-0.3,0-0.4c0.7-0.7,1.3-1.4,2.1-2C18.7,32.6,18.8,32.6,18.8,32.7z"/>
	<path class="st0" d="M9.3,47.5C9,47.3,8.7,47.1,8.5,47c0,0,0-0.1-0.1-0.1c0.1-0.2,0.2-0.4,0.4-0.5c0.6-0.6,1.1-1.2,1.8-1.7
		c0,0,0.1,0,0.1,0c0.3,0.1,0.7,0.3,1,0.4c0,0,0,0.1,0,0.1c-0.8,0.8-1.6,1.6-2.4,2.4C9.4,47.5,9.3,47.5,9.3,47.5z"/>
	<path class="st0" d="M38.8,6.9c0.2,0.2,0.4,0.5,0.5,0.7c0.1,0.1,0.1,0.1,0.1,0.2c-0.6,0.6-1.2,1.2-1.8,1.8
		c-0.1,0.1-0.3,0.3-0.5,0.4c0,0-0.1,0-0.1,0c-0.2-0.2-0.3-0.5-0.4-0.8c0-0.1-0.1-0.2,0-0.3c0.8-0.7,1.4-1.5,2.2-2.1
		C38.7,6.8,38.8,6.8,38.8,6.9z"/>
	<path class="st0" d="M37.8,6c0.2,0.2,0.4,0.4,0.7,0.6c0,0,0,0.1,0,0.1c-0.7,0.8-1.4,1.5-2.1,2.1c0,0-0.1,0-0.1,0
		c-0.3-0.2-0.6-0.3-0.8-0.6c0,0,0-0.1,0-0.1c0.7-0.8,1.5-1.5,2.1-2.2C37.7,5.8,37.8,5.9,37.8,6z"/>
	<path class="st0" d="M8.1,46.7c-0.2-0.2-0.4-0.5-0.7-0.7c-0.1,0-0.1,0-0.1-0.1c0.7-0.8,1.4-1.6,2.2-2.2c0,0,0.1,0,0.1,0
		c0.2,0.2,0.4,0.5,0.7,0.7c0,0,0,0.1,0,0.1C9.7,45.2,9,46,8.2,46.7C8.2,46.7,8.1,46.7,8.1,46.7z"/>
	<path class="st2" d="M12.5,7.6c0.2,0.1,0,0.2-0.1,0.3c-1.7,1.7-3.5,3.5-5.2,5.2c-0.1,0.1-0.1,0.2-0.2,0.1c-0.1-0.3,0.2-0.4,0.3-0.6
		c1.3-1.8,3-3.2,4.7-4.6C12.2,7.8,12.3,7.5,12.5,7.6z"/>
	<path class="st3" d="M40.2,26.8c-0.9,0.9-1.8,1.8-2.7,2.7c-0.1,0.1-0.3,0.2-0.4,0.4c-0.1-0.1-0.1-0.3,0-0.4c0-0.3,0.1-0.6,0.4-0.8
		c0.8-0.7,1.7-1.5,2.5-2.3c0.1-0.1,0.1-0.2,0.3-0.2C40.3,26.3,40.3,26.5,40.2,26.8C40.3,26.7,40.3,26.7,40.2,26.8z"/>
	<path class="st3" d="M39.8,44.3c0,0.1-0.1,0.3-0.1,0.4C39,46,38,47,36.8,47.6c-0.1,0.1-0.2,0.2-0.4,0.1c-0.1-0.1,0-0.2,0.1-0.2
		c1-1,2.1-2.1,3.1-3.1C39.6,44.4,39.7,44.2,39.8,44.3z"/>
	<path class="st1" d="M25.1,27.8c0,0.1-0.1,0.2-0.1,0.3c-0.2,0.3-0.4,0.6-0.6,0.9c-1.1,1.1-2.2,2.2-3.3,3.3
		c-0.1,0.1-0.3,0.3-0.4,0.4c0,0-0.1,0-0.1,0c-0.1,0-0.3,0-0.3-0.1C21.9,31,23.4,29.4,25.1,27.8z"/>
	<path class="st4" d="M31.6,21.2c0,0.1-0.1,0.2-0.2,0.3c-1.9,1.9-3.8,3.8-5.7,5.7c-0.1,0.1-0.2,0.1-0.2,0.2c0.3-0.6,0.7-1.2,1.3-1.7
		c1.5-1.4,3-2.8,4.5-4.2C31.4,21.3,31.5,21.3,31.6,21.2z"/>
	<path class="st2" d="M37,43c0.4-0.2,0.7-0.6,1-0.9c0.8-0.7,1.5-1.5,2.2-2.2c0,0.1,0,0.3,0,0.4c0,0,0,0.1,0,0.1
		c-1.1,1.1-2.1,2.1-3.2,3.2c-0.1,0.1-0.1,0.3-0.4,0.2c-0.1-0.2,0.1-0.3,0.1-0.5C36.8,43.1,36.9,43,37,43z"/>
	<path class="st2" d="M31.9,48.2c0.9-0.9,1.9-1.9,2.8-2.8c0.1-0.1,0.3-0.2,0.3-0.4c0-0.2,0.2-0.2,0.3-0.3c0.2,0,0.3-0.2,0.5-0.1
		c0.1,0.2-0.1,0.3-0.2,0.4c-1.1,1.1-2.1,2.2-3.2,3.2c0,0-0.1,0-0.1,0C32.2,48.3,32,48.3,31.9,48.2z"/>
	<path class="st1" d="M37.1,29.4c0,0.1,0,0.3,0,0.4c0,0,0,0.1,0,0.1C37.1,30,37,30.1,37,30.2c-1,1-1.9,2-3,2.9c0,0-0.1,0-0.1,0
		c-0.1,0-0.1-0.1-0.1-0.2c0,0,0,0,0-0.1c0.7-0.8,1.5-1.5,2.2-2.3C36.3,30.2,36.7,29.8,37.1,29.4z"/>
	<path class="st2" d="M23,28c0.2,0.2-0.1,0.3-0.1,0.5c-0.3,0.5-0.7,1-0.9,1.6c0,0.2-0.2,0.2-0.4,0.2c-0.2,0-0.4,0-0.6,0
		c-0.1,0.1-0.2,0.1-0.3,0c-0.2-0.2,0-0.3,0.1-0.4c0.7-0.7,1.3-1.4,2.1-2C22.9,28,22.9,28,23,28z"/>
	<path class="st2" d="M40.2,28.7c-0.9,0.9-1.8,1.8-2.7,2.7c-0.1,0.1-0.3,0.2-0.4,0.4c-0.1-0.1-0.1-0.2-0.1-0.4
		c0-0.1,0.1-0.1,0.1-0.1c0.9-0.9,1.8-1.8,2.7-2.7c0.1-0.1,0.3-0.2,0.4-0.4C40.3,28.3,40.3,28.5,40.2,28.7
		C40.3,28.6,40.3,28.7,40.2,28.7z"/>
	<path class="st2" d="M6.1,33.2c0.9-0.9,1.8-1.8,2.7-2.7c0.1-0.1,0.3-0.2,0.4-0.4c0.1,0.1,0.1,0.2,0.1,0.4c0,0.1-0.1,0.1-0.1,0.1
		c-0.9,0.9-1.8,1.8-2.7,2.7c-0.1,0.1-0.3,0.2-0.4,0.4c-0.1-0.1-0.1-0.3,0-0.4C6.1,33.2,6.1,33.2,6.1,33.2z"/>
	<path class="st2" d="M37.2,33.2c0.9-0.9,1.8-1.8,2.7-2.7c0.1-0.1,0.3-0.2,0.4-0.4c0,0.1,0,0.3,0,0.4c0,0,0,0.1,0,0.1
		c-0.9,0.9-1.8,1.8-2.7,2.7c-0.1,0.1-0.3,0.2-0.4,0.4c-0.1-0.1-0.1-0.2-0.1-0.4C37.1,33.2,37.1,33.2,37.2,33.2z"/>
	<path class="st2" d="M9.2,32.6c-0.9,0.9-1.8,1.8-2.7,2.7c-0.1,0.1-0.3,0.2-0.4,0.4c-0.1-0.1-0.1-0.3,0-0.4c0,0,0-0.1,0-0.1
		c0.9-0.9,1.8-1.8,2.7-2.7c0.1-0.1,0.3-0.2,0.4-0.4c0.1,0.1,0.1,0.2,0.1,0.4C9.2,32.5,9.2,32.6,9.2,32.6z"/>
	<path class="st2" d="M40.2,32.6c-0.9,0.9-1.8,1.8-2.7,2.7c-0.1,0.1-0.3,0.2-0.4,0.4c-0.1-0.1-0.1-0.2-0.1-0.4
		c0-0.1,0.1-0.1,0.1-0.1c0.9-0.9,1.8-1.8,2.7-2.7c0.1-0.1,0.3-0.2,0.4-0.4C40.3,32.2,40.3,32.4,40.2,32.6
		C40.3,32.5,40.3,32.5,40.2,32.6z"/>
	<path class="st2" d="M9.2,34.5c-0.9,0.9-1.8,1.8-2.7,2.7c-0.1,0.1-0.3,0.2-0.4,0.4c-0.1-0.1-0.1-0.3,0-0.4c0,0,0-0.1,0-0.1
		c0.9-0.9,1.8-1.8,2.7-2.7C8.9,34.3,9,34.2,9.2,34c0.1,0.1,0.1,0.2,0.1,0.4C9.2,34.5,9.2,34.5,9.2,34.5z"/>
	<path class="st2" d="M40.2,34.5c-0.9,0.9-1.8,1.8-2.7,2.7c-0.1,0.1-0.3,0.2-0.4,0.4c-0.1-0.1-0.1-0.2-0.1-0.4
		c0-0.1,0.1-0.1,0.1-0.1c0.9-0.9,1.8-1.8,2.7-2.7c0.1-0.1,0.3-0.2,0.4-0.4C40.3,34.2,40.3,34.3,40.2,34.5
		C40.3,34.5,40.3,34.5,40.2,34.5z"/>
	<path class="st2" d="M6.1,39c0.9-0.9,1.8-1.8,2.7-2.7C8.9,36.2,9,36.1,9.2,36c0.1,0.1,0.1,0.2,0.1,0.4c0,0.1-0.1,0.1-0.1,0.1
		c-0.9,0.9-1.8,1.8-2.7,2.7c-0.1,0.1-0.3,0.2-0.4,0.4c-0.1-0.1-0.1-0.3,0-0.4C6.1,39.1,6.1,39,6.1,39z"/>
	<path class="st2" d="M37.2,39c0.9-0.9,1.8-1.8,2.7-2.7c0.1-0.1,0.3-0.2,0.4-0.4c0,0.1,0,0.3,0,0.4c0,0,0,0.1,0,0.1
		c-0.9,0.9-1.8,1.8-2.7,2.7c-0.1,0.1-0.3,0.2-0.4,0.4c-0.1-0.1-0.1-0.2-0.1-0.4C37.1,39.1,37.1,39,37.2,39z"/>
	<path class="st2" d="M9.2,38.4c-0.9,0.9-1.8,1.8-2.7,2.7c-0.1,0.1-0.3,0.2-0.4,0.4C5.9,41.3,6,41.2,6,41c0,0,0-0.1,0-0.1
		c0.9-0.9,1.8-1.8,2.7-2.7C8.9,38.2,9,38,9.2,37.9c0.1,0.1,0.1,0.2,0.1,0.4C9.2,38.3,9.2,38.4,9.2,38.4z"/>
	<path class="st2" d="M23.4,4.7c-0.9,0.9-1.8,1.8-2.7,2.7c-0.1,0.1-0.2,0.3-0.4,0.4c0,0-0.1,0.1-0.1,0.1c-0.1,0-0.3,0-0.4-0.1
		c0.9-0.9,1.8-1.8,2.7-2.7c0.1-0.1,0.2-0.3,0.4-0.4c0,0,0.1,0,0.1,0C23.1,4.6,23.2,4.6,23.4,4.7z"/>
	<path class="st2" d="M25.3,4.7c-0.9,0.9-1.8,1.8-2.7,2.7c-0.1,0.1-0.2,0.3-0.4,0.4c0,0-0.1,0.1-0.1,0.1c-0.1,0-0.3,0-0.4-0.1
		c0.9-0.9,1.8-1.8,2.7-2.7c0.1-0.1,0.2-0.3,0.4-0.4c0,0,0.1,0,0.1,0C25,4.6,25.2,4.6,25.3,4.7z"/>
	<path class="st2" d="M27.2,4.7c-0.9,0.9-1.8,1.8-2.7,2.7c-0.1,0.1-0.2,0.3-0.4,0.4c0,0-0.1,0.1-0.1,0.1c-0.1,0-0.3,0-0.4-0.1
		c0.9-0.9,1.8-1.8,2.7-2.7c0.1-0.1,0.2-0.3,0.4-0.4c0,0,0.1,0,0.1,0C27,4.6,27.1,4.6,27.2,4.7z"/>
	<path class="st2" d="M12.5,48.2c0.9-0.9,1.8-1.8,2.7-2.7c0.1-0.1,0.2-0.3,0.4-0.4c0,0,0.1-0.1,0.1-0.1c0.1,0,0.3,0,0.4,0.1
		c-0.9,0.9-1.8,1.8-2.7,2.7c-0.1,0.1-0.2,0.3-0.4,0.4c0,0-0.1,0-0.1,0C12.7,48.3,12.6,48.3,12.5,48.2z"/>
	<path class="st2" d="M29.2,4.7c-0.9,0.9-1.8,1.8-2.7,2.7c-0.1,0.1-0.2,0.3-0.4,0.4c0,0-0.1,0.1-0.1,0.1c-0.1,0-0.3,0-0.4-0.1
		c0.9-0.9,1.8-1.8,2.7-2.7c0.1-0.1,0.2-0.3,0.4-0.4c0,0,0.1,0,0.1,0C28.9,4.6,29.1,4.6,29.2,4.7z"/>
	<path class="st2" d="M14.4,48.2c0.9-0.9,1.8-1.8,2.7-2.7c0.1-0.1,0.2-0.3,0.4-0.4c0,0,0.1-0.1,0.1-0.1c0.1,0,0.3,0,0.4,0.1
		c-0.9,0.9-1.8,1.8-2.7,2.7c-0.1,0.1-0.2,0.3-0.4,0.4c0,0-0.1,0-0.1,0C14.7,48.3,14.5,48.3,14.4,48.2z"/>
	<path class="st2" d="M19.9,45.1c-0.9,0.9-1.8,1.8-2.7,2.7c-0.1,0.1-0.2,0.3-0.4,0.4c0,0-0.1,0-0.1,0c-0.1,0.1-0.3,0.1-0.4,0
		c0.9-0.9,1.8-1.8,2.7-2.7c0.1-0.1,0.2-0.3,0.4-0.4c0,0,0.1-0.1,0.1-0.1C19.6,45,19.8,45,19.9,45.1z"/>
	<path class="st2" d="M29.6,7.8c0.9-0.9,1.8-1.8,2.7-2.7c0.1-0.1,0.2-0.3,0.4-0.4c0,0,0.1,0,0.1,0c0.1-0.1,0.3-0.1,0.4,0
		c-0.9,0.9-1.8,1.8-2.7,2.7c-0.1,0.1-0.2,0.3-0.4,0.4c0,0-0.1,0.1-0.1,0.1C29.8,7.9,29.7,7.9,29.6,7.8z"/>
	<path class="st2" d="M18.3,48.2c0.9-0.9,1.8-1.8,2.7-2.7c0.1-0.1,0.2-0.3,0.4-0.4c0,0,0.1-0.1,0.1-0.1c0.1,0,0.3,0,0.4,0.1
		c-0.9,0.9-1.8,1.8-2.7,2.7c-0.1,0.1-0.2,0.3-0.4,0.4c0,0-0.1,0-0.1,0C18.6,48.3,18.4,48.3,18.3,48.2z"/>
	<path class="st2" d="M27.6,7.8c0.9-0.9,1.8-1.8,2.7-2.7c0.1-0.1,0.2-0.3,0.4-0.4c0,0,0.1,0,0.1,0c0.1-0.1,0.3-0.1,0.4,0
		c-0.9,0.9-1.8,1.8-2.7,2.7c-0.1,0.1-0.2,0.3-0.4,0.4c0,0-0.1,0.1-0.1,0.1C27.9,7.9,27.7,7.9,27.6,7.8z"/>
	<path class="st2" d="M20.3,48.2c0.9-0.9,1.8-1.8,2.7-2.7c0.1-0.1,0.2-0.3,0.4-0.4c0,0,0.1-0.1,0.1-0.1c0.1,0,0.3,0,0.4,0.1
		c-0.9,0.9-1.8,1.8-2.7,2.7c-0.1,0.1-0.2,0.3-0.4,0.4c0,0-0.1,0-0.1,0C20.5,48.3,20.4,48.3,20.3,48.2z"/>
	<path class="st2" d="M22.2,48.2c0.9-0.9,1.8-1.8,2.7-2.7c0.1-0.1,0.2-0.3,0.4-0.4c0,0,0.1-0.1,0.1-0.1c0.1,0,0.3,0,0.4,0.1
		c-0.9,0.9-1.8,1.8-2.7,2.7c-0.1,0.1-0.2,0.3-0.4,0.4c0,0-0.1,0-0.1,0C22.4,48.3,22.3,48.3,22.2,48.2z"/>
	<path class="st2" d="M9.2,17c-0.9,0.9-1.8,1.8-2.7,2.7c-0.1,0.1-0.3,0.2-0.4,0.4c-0.1-0.1-0.1-0.3,0-0.4c0,0,0-0.1,0-0.1
		c0.9-0.9,1.8-1.8,2.7-2.7c0.1-0.1,0.3-0.2,0.4-0.4c0.1,0.1,0.1,0.2,0.1,0.4C9.2,17,9.2,17,9.2,17z"/>
	<path class="st2" d="M24.1,48.2c0.9-0.9,1.8-1.8,2.7-2.7c0.1-0.1,0.2-0.3,0.4-0.4c0,0,0.1-0.1,0.1-0.1c0.1,0,0.3,0,0.4,0.1
		c-0.9,0.9-1.8,1.8-2.7,2.7c-0.1,0.1-0.2,0.3-0.4,0.4c0,0-0.1,0-0.1,0C24.4,48.3,24.3,48.3,24.1,48.2z"/>
	<path class="st2" d="M9.2,19c-0.9,0.9-1.8,1.8-2.7,2.7c-0.1,0.1-0.3,0.2-0.4,0.4c-0.1-0.1-0.1-0.3,0-0.4c0,0,0-0.1,0-0.1
		c0.9-0.9,1.8-1.8,2.7-2.7c0.1-0.1,0.3-0.2,0.4-0.4c0.1,0.1,0.1,0.2,0.1,0.4C9.2,18.9,9.2,18.9,9.2,19z"/>
	<path class="st2" d="M29.6,45.1c-0.9,0.9-1.8,1.8-2.7,2.7c-0.1,0.1-0.2,0.3-0.4,0.4c0,0-0.1,0-0.1,0c-0.1,0.1-0.3,0.1-0.4,0
		c0.9-0.9,1.8-1.8,2.7-2.7c0.1-0.1,0.2-0.3,0.4-0.4c0,0,0.1-0.1,0.1-0.1C29.4,45,29.5,45,29.6,45.1z"/>
	<path class="st2" d="M6.1,23.4c0.9-0.9,1.8-1.8,2.7-2.7c0.1-0.1,0.3-0.2,0.4-0.4c0.1,0.1,0.1,0.2,0.1,0.4c0,0.1-0.1,0.1-0.1,0.1
		c-0.9,0.9-1.8,1.8-2.7,2.7c-0.1,0.1-0.3,0.2-0.4,0.4c-0.1-0.1-0.1-0.3,0-0.4C6.1,23.5,6.1,23.5,6.1,23.4z"/>
	<path class="st2" d="M28,48.2c0.9-0.9,1.8-1.8,2.7-2.7c0.1-0.1,0.2-0.3,0.4-0.4c0,0,0.1-0.1,0.1-0.1c0.1,0,0.3,0,0.4,0.1
		c-0.9,0.9-1.8,1.8-2.7,2.7c-0.1,0.1-0.2,0.3-0.4,0.4c0,0-0.1,0-0.1,0C28.3,48.3,28.1,48.3,28,48.2z"/>
	<path class="st2" d="M9.2,22.9c-0.9,0.9-1.8,1.8-2.7,2.7c-0.1,0.1-0.3,0.2-0.4,0.4c-0.1-0.1-0.1-0.3,0-0.4c0,0,0-0.1,0-0.1
		c0.9-0.9,1.8-1.8,2.7-2.7c0.1-0.1,0.3-0.2,0.4-0.4c0.1,0.1,0.1,0.2,0.1,0.4C9.2,22.8,9.2,22.8,9.2,22.9z"/>
	<path class="st2" d="M30,48.2c0.9-0.9,1.8-1.8,2.7-2.7c0.1-0.1,0.2-0.3,0.4-0.4c0,0,0.1-0.1,0.1-0.1c0.1,0,0.3,0,0.4,0.1
		c-0.9,0.9-1.8,1.8-2.7,2.7c-0.1,0.1-0.2,0.3-0.4,0.4c0,0-0.1,0-0.1,0C30.2,48.3,30.1,48.3,30,48.2z"/>
	<path class="st2" d="M6.1,27.3c0.9-0.9,1.8-1.8,2.7-2.7c0.1-0.1,0.3-0.2,0.4-0.4c0.1,0.1,0.1,0.2,0.1,0.4c0,0.1-0.1,0.1-0.1,0.1
		c-0.9,0.9-1.8,1.8-2.7,2.7c-0.1,0.1-0.3,0.2-0.4,0.4c-0.1-0.1-0.1-0.3,0-0.4C6.1,27.4,6.1,27.4,6.1,27.3z"/>
	<path class="st2" d="M9.2,26.8c-0.9,0.9-1.8,1.8-2.7,2.7c-0.1,0.1-0.3,0.2-0.4,0.4c-0.1-0.1-0.1-0.3,0-0.4c0,0,0-0.1,0-0.1
		c0.9-0.9,1.8-1.8,2.7-2.7c0.1-0.1,0.3-0.2,0.4-0.4c0.1,0.1,0.1,0.2,0.1,0.4C9.2,26.7,9.2,26.7,9.2,26.8z"/>
	<path class="st2" d="M37.2,40.9c0.9-0.9,1.8-1.8,2.7-2.7c0.1-0.1,0.3-0.2,0.4-0.4c0,0.1,0,0.3,0,0.4c0,0,0,0.1,0,0.1
		c-0.9,0.9-1.8,1.8-2.7,2.7c-0.1,0.1-0.3,0.2-0.4,0.4c-0.1-0.1-0.1-0.2-0.1-0.4C37.1,41,37.1,41,37.2,40.9z"/>
	<path class="st2" d="M9.2,28.7c-0.9,0.9-1.8,1.8-2.7,2.7c-0.1,0.1-0.3,0.2-0.4,0.4c-0.1-0.1-0.1-0.3,0-0.4c0,0,0-0.1,0-0.1
		c0.9-0.9,1.8-1.8,2.7-2.7c0.1-0.1,0.3-0.2,0.4-0.4c0.1,0.1,0.1,0.2,0.1,0.4C9.2,28.6,9.2,28.7,9.2,28.7z"/>
	<path class="st2" d="M20.2,32.7c0.1,0,0.3,0,0.4,0c0,0.1,0,0.2-0.1,0.3c-0.7,0.7-1.4,1.4-2.1,2.1c0,0-0.1,0-0.1,0
		c-0.1,0-0.3,0-0.3-0.1C18.7,34.2,19.4,33.5,20.2,32.7C20.2,32.7,20.2,32.7,20.2,32.7z"/>
	<path class="st1" d="M20.6,30.3c0.1,0,0.3,0,0.4,0c-0.7,0.8-1.5,1.5-2.2,2.3c0,0-0.1,0-0.1,0c-0.1,0.1-0.2,0.1-0.3,0
		c-0.2-0.2,0-0.3,0.1-0.4c0.7-0.7,1.3-1.4,2.1-2C20.6,30.3,20.6,30.3,20.6,30.3z"/>
	<path class="st2" d="M45.2,9.7c0.1,0,0.2,0,0.3,0.1c-0.1,0.1-0.2,0.3-0.3,0.4c-7.2,7.2-14.4,14.4-21.6,21.6
		c-0.1,0.1-0.2,0.4-0.4,0.3C23,32,23,31.9,23,31.8c0.1-0.2,0.1-0.4,0.3-0.4c0.2-0.1,0.3-0.3,0.5-0.4c7-7,13.9-13.9,20.9-20.9
		C44.8,10,45,9.9,45.2,9.7z"/>
	<path class="st2" d="M46.3,10.5c0.1,0.1,0.1,0.1,0.2,0.2c-0.1,0.1-0.2,0.3-0.4,0.4C40.5,16.7,35,22.3,29.4,27.9
		c-0.1,0.1-0.3,0.3-0.4,0.5c-0.1,0-0.2-0.1-0.2-0.2c0-0.2,0.2-0.3,0.3-0.4c5.6-5.6,11.3-11.3,16.9-16.9
		C46.1,10.7,46.2,10.6,46.3,10.5z"/>
	<path class="st5" d="M22.7,32.8c-0.1,0.5-0.3,1-0.4,1.4c0,0.3-0.1,0.6-0.4,0.8c-0.8,0.8-1.6,1.7-2.5,2.4c0,0-0.1,0-0.1,0
		c-0.4,0-0.8,0.1-1.2,0c-0.3-0.2-0.1-0.3,0-0.4c0.7-0.7,1.3-1.4,2.1-2c0.2-0.1,0.3-0.2,0.4-0.4c0.5-0.6,1.2-1.2,1.7-1.8
		C22.4,32.7,22.6,32.5,22.7,32.8z"/>
	<path class="st2" d="M22.3,34.4c1.2-1.2,2.4-2.3,3.6-3.5c0.1-0.1,0.2-0.3,0.4-0.4c0.1,0.1,0.1,0.2,0.1,0.3c0,0.1-0.1,0.2-0.2,0.3
		c-1.2,1.2-2.3,2.3-3.5,3.5c-0.1,0.1-0.3,0.4-0.5,0.1C22.2,34.7,22.2,34.5,22.3,34.4z"/>
	<path class="st6" d="M26.7,30c0.3-0.7,0.7-1.3,1.1-1.9c0.4-0.6,0.4-0.6,0.9,0c0.1,0.2,0,0.3-0.1,0.4c-0.5,0.5-1,1-1.5,1.5
		C26.9,30,26.8,30.1,26.7,30C26.6,30,26.6,30,26.7,30C26.6,30,26.7,30,26.7,30z"/>
	<path class="st1" d="M22.3,34.4c0,0.1,0,0.3,0,0.4c0.1,0.1,0.1,0.1,0.1,0.2c-0.8,0.8-1.6,1.6-2.4,2.4c0,0-0.1,0-0.1,0
		c-0.1,0-0.3,0-0.3-0.1c0.8-0.8,1.5-1.5,2.3-2.3c0.2-0.2,0.5-0.5,0.5-0.8C22.3,34.3,22.3,34.4,22.3,34.4z"/>
	<path class="st1" d="M26.7,30c0.1,0.1,0.1,0,0.2,0c0.6-0.6,1.1-1.1,1.7-1.7c0.1-0.1,0.1-0.2,0.1-0.3c0.1,0,0.1,0.1,0.2,0.1
		c0.1,0.1,0.1,0.1,0.2,0.2c0,0,0,0,0,0.1c-0.8,0.8-1.6,1.7-2.5,2.5c0,0-0.1,0-0.1,0c0-0.1-0.1-0.2-0.1-0.3
		C26.4,30.3,26.5,30.2,26.7,30z"/>
	<path class="st1" d="M22.7,32.8c-0.2-0.1-0.3,0.1-0.4,0.2c-0.6,0.5-1.1,1.1-1.7,1.6c-0.2-0.2-0.2-0.4-0.1-0.6
		c0.3-0.1,0.4-0.3,0.6-0.5c0.5-0.5,0.9-1,1.4-1.4c0.1-0.1,0.2-0.3,0.5-0.2c0,0.1,0,0.2,0,0.3C22.9,32.3,22.8,32.6,22.7,32.8z"/>
	<path class="st2" d="M48.2,12.5c0.1,0.1,0.1,0.1,0.2,0.2c-0.1,0.2-0.3,0.3-0.4,0.5c-6.7,6.7-13.3,13.3-20,20
		c-0.1,0.1-0.3,0.3-0.4,0.4c0,0.2-0.2,0.2-0.3,0.3c-0.1,0-0.2,0-0.3,0c-0.1-0.2,0.1-0.3,0.2-0.4c1.2-1.2,2.4-2.5,3.7-3.7
		c5.6-5.6,11.2-11.2,16.8-16.8C47.8,12.8,48,12.6,48.2,12.5z"/>
	<path class="st2" d="M47.3,11.6C47.3,11.6,47.3,11.6,47.3,11.6c0.1,0.3-0.1,0.4-0.2,0.5C41.5,17.7,35.8,23.4,30.2,29
		c-0.1,0.1-0.2,0.2-0.3,0.3c-0.1,0-0.2-0.1-0.2-0.2c0.1-0.1,0.2-0.3,0.3-0.4c5.6-5.6,11.2-11.2,16.7-16.7
		C46.9,11.8,47,11.6,47.3,11.6z"/>
	<path class="st5" d="M24.5,34.7c0.5-0.2,1.1-0.3,1.6-0.5c0.1-0.1,0.2-0.1,0.2,0.1c0,0.1-0.1,0.2-0.2,0.3c-0.9,0.9-1.8,1.8-2.7,2.7
		c-0.1,0.1-0.1,0.1-0.2,0.1c0,0-0.1,0-0.1,0c-0.4,0-0.8,0.1-1.2,0c-0.3-0.3,0-0.4,0.1-0.5c0.7-0.7,1.4-1.4,2.1-2.1
		C24.3,34.7,24.4,34.7,24.5,34.7z"/>
	<path class="st2" d="M24.5,34.7c-0.1,0-0.1,0.1-0.2,0.1c-0.1,0-0.2,0.1-0.3,0.1c-0.3-0.2,0-0.4,0.1-0.5c0.6-0.6,1.1-1.1,1.7-1.7
		c0.5-0.5,1-1,1.5-1.5c0.1-0.1,0.2-0.2,0.4-0.2c0.1,0,0.3-0.1,0.4,0c0.1,0.2-0.1,0.3-0.2,0.4C26.8,32.5,25.6,33.6,24.5,34.7z"/>
	<path class="st1" d="M23.4,37.3c0.9-0.9,1.8-1.9,2.7-2.8c0,0,0.4-0.1,0.1-0.3c0.3-0.1,0.5-0.2,0.8-0.4c0.1,0,0.2,0,0.3,0
		c0.1,0.1,0,0.2-0.1,0.3c-1.1,1.1-2.1,2.2-3.3,3.2c0,0-0.1,0-0.1,0C23.6,37.5,23.4,37.4,23.4,37.3z"/>
	<path class="st7" d="M28.1,30.9C28,31,27.9,31,27.7,31c0-0.1,0-0.1,0-0.2c0.6-0.6,1.1-1.3,1.8-1.8c0,0,0.1,0,0.1,0
		c0.1,0.1,0.1,0.1,0.2,0.2c0,0,0,0.1,0,0.1c-0.2,0.5-0.7,0.8-1.1,1.2C28.6,30.7,28.3,30.8,28.1,30.9z"/>
	<path class="st8" d="M28.8,30.5c0-0.4,0.4-0.5,0.5-0.7c0.1-0.2,0.3-0.3,0.5-0.5c0.4,0.4,0.4,0.4-0.1,0.7
		C29.5,30.2,29.1,30.4,28.8,30.5z"/>
	<path class="st5" d="M23.1,31.8c-0.8,0.6-1.3,1.3-2,1.9c-0.1,0.1-0.1,0.3-0.4,0.2c-0.1-0.2-0.1-0.4,0-0.5c0.1-0.2,0.1-0.5,0.1-0.7
		c1.2-1.2,2.4-2.4,3.5-3.6c0,0,0.1-0.1,0.2,0c-0.3,0.8-0.8,1.5-1.1,2.3C23.3,31.5,23.2,31.7,23.1,31.8z"/>
	<path class="st2" d="M49.1,13.6c0.1,0.1,0.1,0.2,0.1,0.3c-0.1,0.1-0.3,0.2-0.4,0.3C43.1,20,37.4,25.7,31.7,31.4
		c-0.1,0.1-0.3,0.2-0.3,0.4c0,0.3-0.3,0.3-0.5,0.4c-0.1,0-0.2,0.1-0.4,0c-0.1-0.3,0.2-0.3,0.3-0.4c4-4,8-8,11.9-11.9c2-2,4-4,6-6
		C48.8,13.8,48.9,13.6,49.1,13.6z"/>
	<path class="st5" d="M23.8,37.3c1-1,2-2,3-3.1c0.1-0.1,0.3-0.2,0.4-0.4c0.1-0.1,0.2-0.1,0.3-0.2c0.7-0.3,1.4-0.6,2.1-0.9
		c0.1-0.1,0.1,0,0.1,0.1c0,0.1-0.1,0.2-0.3,0.3c-1.3,1.3-2.6,2.6-3.9,3.9c-0.1,0.1-0.2,0.2-0.3,0.3c-0.1,0-0.1,0-0.2,0
		C24.7,37.4,24.2,37.6,23.8,37.3z"/>
	<path class="st1" d="M25.3,37.3c1.4-1.4,2.8-2.8,4.1-4.2c0.1-0.1,0.3-0.2,0.2-0.4c0.3-0.2,0.5-0.3,0.8-0.5c0.1,0,0.2-0.1,0.4-0.1
		c0.1,0.2,0,0.3-0.1,0.4c-1.6,1.6-3.2,3.2-4.8,4.8c0,0-0.1,0-0.1,0.1c0,0-0.1,0-0.1,0C25.5,37.5,25.4,37.4,25.3,37.3z"/>
	<path class="st5" d="M29.6,29.1c-0.6,0.7-1.2,1.3-1.8,2c-0.1,0.1-0.2,0.1-0.3,0.2c-0.5,0.3-0.8,0.2-1-0.4c0.8-0.8,1.6-1.7,2.5-2.4
		C29.2,28.6,29.4,28.9,29.6,29.1z"/>
	<path class="st1" d="M9.2,16.9c0-0.1,0-0.3,0-0.4c0,0,0-0.1,0-0.1c0.2-0.4,0.5-0.7,0.9-0.9c0,0,0.1,0,0.1,0c0.1,0,0.3,0,0.4,0
		C10.2,16.2,9.8,16.6,9.2,16.9z"/>
	<path class="st5" d="M10,15.6c-0.3,0.3-0.5,0.6-0.9,0.9C9.2,15.4,9,15.6,10,15.6z"/>
	<path class="st5" d="M25.8,37.3c1.6-1.6,3.1-3.1,4.7-4.7c0.1-0.1,0.3-0.2,0.4-0.4c0.2-0.1,0.3-0.2,0.5-0.4c0.8-0.5,1.4-1.2,2.1-1.8
		c3.7-3.4,7.3-6.7,11-10.1c0.1-0.1,0.1-0.1,0.2-0.2c0.1,0.3-0.2,0.3-0.3,0.4c-4.5,4.5-9.1,9.1-13.6,13.6c-0.1,0.1-0.3,0.2-0.4,0.4
		c-0.5,0.2-0.9,0.5-1.5,0.7c0.2,0,0.4,0,0.6,0c0,0.1,0,0.2-0.1,0.2c-0.7,0.7-1.4,1.5-2.2,2.2c-0.1,0-0.1,0-0.2,0
		C26.6,37.4,26.2,37.6,25.8,37.3z"/>
	<path class="st5" d="M9.2,16.9c0.5-0.4,0.9-0.9,1.3-1.3c0,0,0.1,0,0.1,0c0.5,0,0.9,0,1.4,0c0,0.2-0.1,0.3-0.2,0.4
		c-0.7,0.8-1.5,1.5-2.3,2.3c-0.1,0.1-0.2,0.2-0.4,0.2C9.2,17.9,9.2,17.5,9.2,16.9C9.2,17,9.2,17,9.2,16.9z"/>
	<path class="st2" d="M12.1,15.6c1.7-1.7,3.4-3.4,5.1-5.1c0.4-0.4,0.9-0.9,1.3-1.3c0.1,0.1,0.1,0.2,0.1,0.3c0,0,0,0.1,0,0.1
		c0,0.1-0.1,0.2-0.2,0.2c-1.9,1.9-3.7,3.7-5.6,5.6c-0.1,0.1-0.1,0.1-0.2,0.2c0,0-0.1,0-0.1,0C12.3,15.7,12.2,15.7,12.1,15.6z"/>
	<path class="st1" d="M12.1,15.6c0.1,0,0.3,0,0.4,0c0,0.2-0.1,0.3-0.2,0.4c-0.9,0.9-1.8,1.8-2.7,2.7c-0.1,0.1-0.2,0.3-0.4,0.2
		c0-0.1,0-0.3,0-0.4c0,0,0-0.1,0-0.1c1-0.9,1.9-1.8,2.8-2.8C12,15.6,12.1,15.6,12.1,15.6z"/>
	<path class="st5" d="M18.5,9.1c-0.1-1.3-0.1-1.3,1.2-1.2C19.5,8.4,19.1,8.8,18.5,9.1z"/>
	<path class="st1" d="M18.5,9.1c0.4-0.4,0.9-0.8,1.2-1.2c0,0,0.1,0,0.1,0c0.1,0,0.3,0,0.4,0c0,0.1,0,0.2-0.1,0.3
		c-0.4,0.4-0.9,0.9-1.3,1.3c-0.1,0.1-0.2,0.2-0.3,0.1c0-0.1,0-0.3,0-0.4C18.5,9.1,18.5,9.1,18.5,9.1z"/>
	<path class="st5" d="M23,28c0,0-0.1,0-0.1,0c-0.4,0.2-0.8,0.1-1.2,0.1c-0.3-0.2-0.1-0.3,0-0.4c0.7-0.7,1.3-1.4,2.1-2
		c0,0,0.1,0,0.1-0.1c0.5,0.1,0.8-0.2,1-0.6c0.3-0.5,0.8-0.9,1.3-1.4c0.1-0.1,0.2-0.2,0-0.3c-0.1-0.2,0-0.3,0.1-0.3
		c0.7-0.7,1.4-1.4,2.1-2.1c0,0,0.1,0,0.1,0c0.5,0,0.8-0.2,1.2-0.5c0.5-0.5,1.1-1,1.7-1.6c-0.2-0.1-0.4,0-0.5-0.1
		c-0.1-0.2,0.1-0.3,0.2-0.4c1.9-1.9,3.8-3.8,5.7-5.7c0.1-0.1,0.2-0.3,0.4-0.2c0,0.4,0,0.8,0,1.3c0,0.3-0.2,0.4-0.4,0.5
		c-4.5,4.5-8.9,8.9-13.4,13.4C23.2,27.7,23.1,27.9,23,28z"/>
	<path class="st2" d="M34,48.2c-0.1,0-0.1,0-0.2,0c1.6-1.6,3.2-3.2,4.8-4.8c0.5-0.5,1.1-1,1.6-1.6c0,0.1,0,0.1,0,0.2
		c-0.1,0.3-0.3,0.6-0.5,0.8c-1.6,1.6-3.3,3.3-4.9,4.9C34.6,47.9,34.4,48.1,34,48.2z"/>
	<path class="st9" d="M35.8,44.6c-0.2,0.1-0.3,0.1-0.5,0.2c0-0.1,0-0.2,0.1-0.3c0.4-0.4,0.8-0.8,1.1-1.1c0.1-0.1,0.2-0.2,0.3-0.1
		c-0.1,0.2-0.1,0.3-0.2,0.5C36.4,44,36.1,44.3,35.8,44.6z"/>
	<path class="st5" d="M36.9,43.3c-0.5,0.5-1.1,1-1.5,1.5c-0.1,0.1-0.2,0.1-0.3,0.2c-0.5,0.1-1,0.2-1.4,0.1c0-0.2,0.1-0.3,0.2-0.4
		c1-1,1.9-1.9,2.9-2.9c0.1-0.1,0.2-0.3,0.4-0.2c0.1,0.5,0,1-0.1,1.4C37,43.1,36.9,43.2,36.9,43.3z"/>
	<path class="st1" d="M37.1,41.5c-1.2,1.2-2.4,2.4-3.6,3.6c0,0-0.1,0-0.1,0c-0.1,0-0.3,0-0.4,0c0-0.2,0.1-0.3,0.2-0.4
		c1.1-1.1,2.2-2.3,3.4-3.4c0.1-0.1,0.2-0.3,0.4-0.2c0,0.1,0,0.3,0,0.4C37.2,41.5,37.1,41.5,37.1,41.5z"/>
	<path class="st5" d="M30,7.8C30,7.8,30,7.8,30,7.8c0.5,0,1,0,1.5,0c0,0.2-0.2,0.3-0.3,0.5c-3.4,3.4-6.8,6.8-10.2,10.2
		c-0.1,0.1-0.2,0.2-0.4,0.3c0,0-0.1,0-0.1,0c-0.4,0-0.8,0.1-1.2,0c-0.2-0.1-0.1-0.2-0.1-0.3c0.1-0.1,0.2-0.2,0.3-0.4
		c3.3-3.3,6.6-6.6,9.9-9.9C29.6,8.1,29.7,7.9,30,7.8z"/>
	<path class="st1" d="M20.6,18.7c0.1-0.1,0.2-0.3,0.4-0.4c3.4-3.4,6.7-6.7,10.1-10.1c0.1-0.1,0.2-0.3,0.4-0.4c0,0,0.1,0,0.1,0
		c0.1-0.1,0.2-0.1,0.3,0c0.2,0.2,0,0.3-0.1,0.4c-0.3,0.3-0.7,0.7-1,1c-3,3-6.1,6.1-9.1,9.1c-0.2,0.2-0.3,0.3-0.5,0.5
		c0,0-0.1,0-0.1,0C20.8,18.8,20.7,18.8,20.6,18.7z"/>
	<path class="st2" d="M31.9,7.8c-0.1,0-0.3,0-0.4,0c0.9-0.9,1.9-1.9,2.8-2.8c0.2-0.2,0.3-0.2,0.5-0.2c0,0,0.1,0,0.1,0
		c-0.8,0.8-1.7,1.7-2.5,2.5C32.3,7.5,32.1,7.6,31.9,7.8C32,7.8,31.9,7.8,31.9,7.8z"/>
	<path class="st5" d="M28,7.8C28.1,7.8,28.1,7.8,28,7.8c0.5,0,1,0,1.5,0c0,0.2-0.2,0.3-0.3,0.5c-3.4,3.4-6.8,6.8-10.2,10.2
		c-0.1,0.1-0.2,0.2-0.4,0.3c0,0-0.1,0-0.1,0c-0.4,0-0.8,0.1-1.2,0c-0.2-0.1-0.1-0.2-0.1-0.3c0.1-0.1,0.2-0.2,0.3-0.4
		c3.3-3.3,6.6-6.6,9.9-9.9C27.6,8.1,27.8,7.9,28,7.8z"/>
	<path class="st1" d="M18.7,18.7c0.1-0.1,0.2-0.3,0.4-0.4c3.4-3.4,6.7-6.7,10.1-10.1c0.1-0.1,0.2-0.3,0.4-0.4c0,0,0.1,0,0.1,0
		c0.1,0,0.3,0,0.4,0c-0.1,0.1-0.2,0.3-0.4,0.4c-3.4,3.4-6.7,6.7-10.1,10.1c-0.1,0.1-0.2,0.3-0.4,0.4c0,0-0.1,0.1-0.1,0.1
		C18.9,18.8,18.8,18.8,18.7,18.7z"/>
	<path class="st5" d="M19.5,45.1C19.4,45.1,19.4,45.1,19.5,45.1c-0.5,0-1,0-1.5,0c0-0.2,0.1-0.3,0.2-0.4c1.6-1.6,3.3-3.3,4.9-4.9
		c0.1-0.1,0.2-0.2,0.3-0.2c0,0,0.1,0,0.1,0c0.4,0,0.8-0.1,1.2,0c0.1,0.1,0.2,0.1,0.1,0.3c-0.1,0.1-0.2,0.3-0.3,0.4
		c-1.5,1.5-3,3-4.5,4.5C19.8,44.9,19.7,45,19.5,45.1z"/>
	<path class="st1" d="M23.4,39.7c-1.6,1.7-3.3,3.3-4.9,5c-0.1,0.1-0.3,0.3-0.4,0.4c0,0-0.1,0-0.1,0c-0.1,0-0.3,0-0.4,0
		c0-0.2,0.1-0.3,0.2-0.4c1.7-1.7,3.3-3.4,5-5c0,0,0.1-0.1,0.1-0.1c0,0,0.1,0,0.1,0C23.1,39.6,23.3,39.6,23.4,39.7z"/>
	<path class="st5" d="M9.2,20.9C9.2,20.9,9.2,20.9,9.2,20.9c0.1-0.2,0.2-0.4,0.3-0.5c1.6-1.6,3.2-3.2,4.7-4.7
		c0.1-0.1,0.2-0.2,0.3-0.2c0.6-0.1,1.1-0.3,1.7-0.4c0.2,0.3-0.1,0.4-0.2,0.5c-0.9,0.9-1.7,1.7-2.6,2.6c-0.2,0.2-0.3,0.3-0.5,0.5
		c-0.2,0.2-0.4,0.3-0.5,0.5c-0.9,0.9-1.8,1.8-2.7,2.7c-0.1,0.1-0.3,0.3-0.5,0.3C9.2,21.8,9.2,21.4,9.2,20.9z"/>
	<path class="st1" d="M9.2,22.3c0.9-0.9,1.8-1.8,2.8-2.7c0.1-0.1,0.3-0.3,0.4-0.4c0.2,0.2,0,0.4,0,0.6c-0.9,1-1.9,2-2.9,3
		c-0.1,0.1-0.2,0.1-0.3,0.1c0-0.1,0-0.3,0-0.4C9.2,22.3,9.2,22.3,9.2,22.3z"/>
	<path class="st5" d="M29.2,45.1C29.2,45.1,29.1,45.1,29.2,45.1c-0.5,0-1,0-1.5,0c0-0.2,0.1-0.3,0.2-0.4c1.7-1.7,3.3-3.4,5-5
		c0,0,0.1-0.1,0.1-0.1c0.5-0.1,0.8-0.4,0.9-0.9c0.9-1,1.9-1.9,2.9-2.9c0.1-0.1,0.2-0.2,0.3-0.1c0,0.5,0,0.9,0,1.4c0,0,0,0.1,0,0.1
		c-0.1,0.2-0.2,0.4-0.4,0.5c-2.3,2.3-4.7,4.7-7,7C29.6,44.9,29.4,45,29.2,45.1z"/>
	<path class="st1" d="M33.1,39.7c-1.7,1.7-3.3,3.3-4.9,5c-0.1,0.1-0.3,0.3-0.4,0.4c0,0-0.1,0-0.1,0c-0.1,0-0.3,0-0.4,0
		c0-0.2,0.1-0.3,0.2-0.4c1.6-1.6,3.2-3.2,4.8-4.8c0.1-0.1,0.2-0.2,0.3-0.3C32.8,39.6,33,39.5,33.1,39.7z"/>
	<path class="st5" d="M32.6,39.7c-1.6,1.6-3.1,3.1-4.7,4.7c-0.2,0.2-0.4,0.5-0.7,0.7c0,0-0.1,0-0.1,0c-0.5,0-0.9,0-1.4,0
		c0-0.2,0.1-0.3,0.2-0.4c1.6-1.6,3.3-3.3,4.9-4.9c0.1-0.1,0.2-0.2,0.3-0.2c0.1,0,0.1,0,0.2,0C31.8,39.6,32.2,39.4,32.6,39.7z"/>
	<path class="st1" d="M31.1,39.7c-1.6,1.7-3.3,3.3-4.9,5c-0.1,0.1-0.3,0.3-0.4,0.4c0,0-0.1,0-0.1,0c-0.1,0-0.3,0-0.4,0
		c0-0.2,0.1-0.3,0.2-0.4c1.7-1.7,3.3-3.4,5-5c0,0,0.1-0.1,0.1-0.1c0,0,0.1,0,0.1,0C30.9,39.6,31,39.6,31.1,39.7z"/>
	<path class="st5" d="M30.6,39.7c-1.6,1.6-3.1,3.1-4.7,4.7c-0.2,0.2-0.4,0.5-0.7,0.7c0,0-0.1,0-0.1,0c-0.5,0-0.9,0-1.4,0
		c0-0.2,0.1-0.3,0.2-0.4c1.6-1.6,3.3-3.3,4.9-4.9c0.1-0.1,0.2-0.2,0.3-0.2c0.1,0,0.1,0,0.2,0C29.8,39.6,30.3,39.4,30.6,39.7z"/>
	<path class="st1" d="M29.2,39.7c-1.6,1.7-3.3,3.3-4.9,5c-0.1,0.1-0.3,0.3-0.4,0.4c0,0-0.1,0-0.1,0c-0.1,0-0.3,0-0.4,0
		c0-0.2,0.1-0.3,0.2-0.4c1.7-1.7,3.3-3.4,5-5c0,0,0.1-0.1,0.1-0.1c0,0,0.1,0,0.1,0C29,39.6,29.1,39.6,29.2,39.7z"/>
	<path class="st5" d="M28.7,39.7c-1.6,1.6-3.1,3.1-4.7,4.7c-0.2,0.2-0.4,0.5-0.7,0.7c0,0-0.1,0-0.1,0c-0.5,0-0.9,0-1.4,0
		c0-0.2,0.1-0.3,0.2-0.4c1.6-1.6,3.3-3.3,4.9-4.9c0.1-0.1,0.2-0.2,0.3-0.2c0.1,0,0.1,0,0.2,0C27.9,39.6,28.3,39.4,28.7,39.7z"/>
	<path class="st1" d="M27.2,39.7c-1.6,1.7-3.3,3.3-4.9,5c-0.1,0.1-0.3,0.3-0.4,0.4c0,0-0.1,0-0.1,0c-0.1,0-0.3,0-0.4,0
		c0-0.2,0.1-0.3,0.2-0.4c1.7-1.7,3.3-3.4,5-5c0,0,0.1-0.1,0.1-0.1c0,0,0.1,0,0.1,0C27,39.6,27.2,39.6,27.2,39.7z"/>
	<path class="st5" d="M26.8,39.7c-1.6,1.6-3.1,3.1-4.7,4.7c-0.2,0.2-0.4,0.5-0.7,0.7c0,0-0.1,0-0.1,0c-0.5,0-0.9,0-1.4,0
		c0-0.2,0.1-0.3,0.2-0.4c1.6-1.6,3.3-3.3,4.9-4.9c0.1-0.1,0.2-0.2,0.3-0.2c0.1,0,0.1,0,0.2,0C25.9,39.6,26.4,39.4,26.8,39.7z"/>
	<path class="st1" d="M25.3,39.7c-1.6,1.7-3.3,3.3-4.9,5c-0.1,0.1-0.3,0.3-0.4,0.4c0,0-0.1,0-0.1,0c-0.1,0-0.3,0-0.4,0
		c1.6-1.6,3.2-3.2,4.8-4.8c0.2-0.2,0.4-0.4,0.5-0.6c0,0,0.1-0.1,0.1-0.1C25.1,39.6,25.2,39.6,25.3,39.7z"/>
	<path class="st5" d="M22.9,39.7c-1.6,1.6-3.1,3.2-4.7,4.7c-0.2,0.2-0.4,0.4-0.6,0.7c0,0-0.1,0-0.1,0c-0.5,0-0.9,0-1.4,0
		c0-0.2,0.1-0.3,0.2-0.4c1.6-1.6,3.3-3.3,4.9-4.9c0.1-0.1,0.2-0.2,0.3-0.2c0.1,0,0.1,0,0.2,0C22.1,39.6,22.5,39.4,22.9,39.7z"/>
	<path class="st1" d="M21.4,39.7c-1.6,1.7-3.3,3.3-4.9,5c-0.1,0.1-0.3,0.3-0.4,0.4c0,0-0.1,0-0.1,0c-0.1,0-0.3,0-0.4,0
		c0-0.2,0.1-0.3,0.2-0.4c1.7-1.7,3.3-3.4,5-5c0,0,0.1-0.1,0.1-0.1c0,0,0.1,0,0.1,0C21.2,39.6,21.3,39.6,21.4,39.7z"/>
	<path class="st5" d="M9.2,24.8C9.2,24.8,9.2,24.7,9.2,24.8c0.1-0.3,0.2-0.4,0.3-0.5c1-1,2-2,3.1-3.1c0.1-0.1,0.2-0.3,0.4-0.3
		c0.4,0,0.8-0.1,1.2,0c0.2,0.1,0.2,0.2,0.1,0.3c-0.1,0.1-0.2,0.2-0.3,0.4c-1.4,1.4-2.8,2.8-4.2,4.2c-0.2,0.2-0.3,0.4-0.5,0.3
		C9.2,25.7,9.2,25.3,9.2,24.8z"/>
	<path class="st1" d="M9.2,26.2c1.7-1.7,3.4-3.4,5.1-5.1c0,0,0.1-0.1,0.1-0.1c0.1,0,0.2,0,0.4,0c0.1,0.2-0.1,0.3-0.2,0.4
		c-1.7,1.7-3.3,3.3-5,5c-0.1,0.1-0.2,0.3-0.4,0.2c0-0.1,0-0.3,0-0.4C9.2,26.2,9.2,26.2,9.2,26.2z"/>
	<path class="st5" d="M9.2,30.6C9.2,30.6,9.2,30.6,9.2,30.6c0.1-0.2,0.2-0.4,0.3-0.5c1.4-1.4,2.9-2.9,4.3-4.3
		c0.1-0.1,0.2-0.2,0.3-0.2c0,0,0.1,0,0.1,0c0.4,0,0.8-0.1,1.2,0c0.3,0.2,0.1,0.3,0,0.4c-0.7,0.7-1.3,1.4-2.1,2.1
		c-0.6,0.1-0.8,0.5-0.9,0.9c-0.9,1-1.9,1.9-2.8,2.8C9.5,31.9,9.4,32,9.2,32C9.2,31.5,9.2,31.1,9.2,30.6z"/>
	<path class="st1" d="M9.2,32c0.9-0.9,1.8-1.8,2.7-2.7c0.1-0.1,0.3-0.2,0.4-0.4c0.1,0.1,0.1,0.2,0.1,0.3c0,0.1,0,0.1,0,0.2
		c-0.9,1-1.9,1.9-2.9,2.9c-0.1,0.1-0.2,0.2-0.3,0.1c0-0.1,0-0.3,0-0.4C9.2,32.1,9.2,32,9.2,32z"/>
	<path class="st5" d="M37.2,35.1C37.2,35.1,37.1,35.2,37.2,35.1c-0.1,0.2-0.2,0.4-0.3,0.5c-0.8,0.8-1.6,1.6-2.5,2.5
		c-0.1,0.1-0.2,0.2-0.4,0.2c-0.2-0.3-0.4-0.6-0.5-0.9c0-0.2,0.2-0.3,0.3-0.5c0.9-1,1.9-1.9,2.9-2.8c0.1-0.1,0.2-0.3,0.5-0.3
		C37.1,34.2,37.2,34.7,37.2,35.1z"/>
	<path class="st1" d="M37.1,33.8c-1.2,1.2-2.4,2.4-3.6,3.6c-0.1,0.1-0.1,0.1-0.2,0.1c-0.1,0-0.2,0-0.3-0.1c-0.1-0.2,0.1-0.3,0.2-0.4
		c1.1-1.2,2.3-2.3,3.5-3.5c0.1-0.1,0.2-0.3,0.4-0.2c0,0.1,0,0.3,0,0.4C37.2,33.7,37.1,33.7,37.1,33.8z"/>
	<path class="st5" d="M9.2,22.8c0.9-0.9,1.8-1.8,2.7-2.7c0.1-0.1,0.3-0.2,0.4-0.4c0.2,0.3,0.2,0.7,0.4,1c0,0.2-0.1,0.3-0.3,0.5
		c-0.9,0.9-1.8,1.8-2.7,2.7c-0.1,0.1-0.2,0.3-0.4,0.2C9.2,23.8,9.2,23.3,9.2,22.8C9.2,22.8,9.2,22.8,9.2,22.8z"/>
	<path class="st1" d="M9.2,24.2c1.2-1.1,2.3-2.2,3.4-3.4c0,0,0.1,0,0.1,0c0.1,0,0.2,0.1,0.2,0.1c0,0,0,0.1,0,0.1
		c-1.2,1.3-2.4,2.5-3.7,3.7c0-0.1,0-0.3,0-0.4C9.2,24.3,9.2,24.3,9.2,24.2z"/>
	<path class="st5" d="M9.2,32.5c0.9-0.9,1.8-1.7,2.7-2.6c0.1-0.1,0.3-0.3,0.4-0.4c0.3,0.2,0.3,0.5,0.5,0.7c0.1,0.2,0,0.4-0.2,0.5
		c-1,1-2,2-3,3c-0.1,0.1-0.2,0.2-0.4,0.2C9.2,33.5,9.2,33,9.2,32.5C9.2,32.5,9.2,32.5,9.2,32.5z"/>
	<path class="st1" d="M9.2,33.9c1.1-1.1,2.3-2.2,3.4-3.4c0.1-0.1,0.2-0.2,0.1-0.3c0.1-0.1,0.3,0,0.4,0c0.1,0,0.1,0,0.2,0.1
		c0.1,0.2-0.1,0.3-0.2,0.4c-1.2,1.2-2.3,2.3-3.5,3.5c-0.1,0.1-0.2,0.3-0.4,0.2c0-0.1,0-0.3,0-0.4C9.2,34,9.2,34,9.2,33.9z"/>
	<path class="st1" d="M34.1,38.2c0.9-0.9,1.8-1.7,2.7-2.6c0.1-0.1,0.3-0.3,0.4-0.4c0,0.1,0,0.3,0,0.4c0,0,0,0.1,0,0.1
		c-0.9,0.9-1.8,1.8-2.7,2.7c-0.1,0.1-0.3,0.2-0.4,0.4C33.9,38.5,33.9,38.4,34.1,38.2z"/>
	<path class="st5" d="M9.2,26.7c1.9-1.9,3.7-3.7,5.6-5.6c0,0,0.1-0.1,0.1-0.1c0.4-0.1,0.8-0.1,1.2,0c0.3,0.2,0.1,0.3,0,0.4
		c-0.7,0.7-1.4,1.4-2.1,2.1c0,0-0.1,0-0.1,0c-0.1,0-0.2,0-0.3,0c-0.9,0-1.1,0.2-1.2,1.2c0,0.1,0,0.1,0,0.2c0,0.2-0.1,0.4-0.3,0.5
		c-0.8,0.8-1.7,1.7-2.5,2.5c-0.1,0.1-0.2,0.3-0.4,0.2C9.2,27.7,9.2,27.2,9.2,26.7C9.2,26.7,9.2,26.7,9.2,26.7z"/>
	<path class="st1" d="M9.2,28.1c1-1,2-1.9,3-2.9c0.1-0.1,0.1-0.2,0.1-0.3c0,0,0.1,0,0.1,0c0.1,0.1,0.1,0.2,0.1,0.4c0,0,0,0.1,0,0.1
		c-1,1-2,2-3,3c-0.1,0.1-0.2,0.2-0.3,0.1c0-0.1,0-0.3,0-0.4C9.2,28.2,9.2,28.1,9.2,28.1z"/>
	<path class="st5" d="M18.5,9.6c0.6-0.5,1.2-1.1,1.7-1.7c0,0,0.1,0,0.1,0c0.5,0,0.9,0,1.4,0c0,0.2-0.1,0.3-0.2,0.4
		c-0.8,0.9-1.7,1.7-2.6,2.6c-0.1,0.1-0.3,0.4-0.5,0.1c-0.1-0.4-0.1-0.8,0.1-1.2C18.5,9.6,18.5,9.6,18.5,9.6z"/>
	<path class="st1" d="M18.5,11c1.1-1.1,2.1-2.1,3.2-3.2c0,0,0.1,0,0.1,0c0.1,0,0.3,0,0.4,0c0,0.2-0.2,0.3-0.3,0.5c-1,1-2,2-2.9,2.9
		c-0.1,0.1-0.2,0.4-0.5,0.3C18.4,11.3,18.4,11.2,18.5,11C18.5,11,18.5,11,18.5,11z"/>
	<path class="st5" d="M37.2,31.2C37.2,31.3,37.1,31.3,37.2,31.2c-0.1,0.2-0.2,0.4-0.3,0.5c-0.8,0.8-1.6,1.6-2.5,2.4
		c-0.1,0.1-0.3,0.4-0.5,0c0-0.4-0.1-0.7,0-1.1c1-1.1,2.1-2.2,3.2-3.2C37.1,30.3,37.2,30.8,37.2,31.2z"/>
	<path class="st5" d="M37.1,41c-1.4,1.3-2.7,2.7-4.1,4.1c0,0-0.1,0-0.1,0c-0.5,0-0.9,0-1.4,0c0-0.2,0.1-0.3,0.3-0.5
		c1.6-1.6,3.2-3.2,4.8-4.8c0.1-0.1,0.2-0.3,0.5-0.3C37.1,40,37.2,40.5,37.1,41C37.2,41,37.1,41,37.1,41z"/>
	<path class="st1" d="M37.1,39.6c-1.9,1.8-3.7,3.6-5.5,5.5c0,0-0.1,0-0.1,0c-0.1,0-0.3,0-0.4,0c0-0.2,0.2-0.3,0.3-0.5
		c1.7-1.8,3.5-3.5,5.2-5.2c0.1-0.1,0.2-0.3,0.5-0.3c0,0.1,0,0.3,0,0.4C37.2,39.5,37.1,39.5,37.1,39.6z"/>
	<path class="st5" d="M9.2,18.9c1.1-1.1,2.2-2.2,3.3-3.3c0,0,0.1,0,0.1,0c0.4-0.2,0.8-0.1,1.2-0.1c0.2,0.1,0.2,0.2,0.1,0.3
		c-0.1,0.1-0.2,0.2-0.3,0.3c-1.3,1.3-2.6,2.7-4,4c-0.1,0.1-0.2,0.3-0.5,0.3C9.2,19.9,9.2,19.4,9.2,18.9C9.2,18.9,9.2,18.9,9.2,18.9z
		"/>
	<path class="st1" d="M9.2,20.3c1.6-1.6,3.2-3.2,4.7-4.7c0,0,0,0,0.1-0.1c0.2-0.1,0.3-0.1,0.4,0.1c-1.3,1.3-2.6,2.6-3.9,4
		c-0.4,0.4-0.9,0.9-1.3,1.3c0-0.1,0-0.3,0-0.4C9.2,20.4,9.2,20.4,9.2,20.3z"/>
	<path class="st5" d="M18.5,11.5c1.3-1.2,2.5-2.4,3.7-3.7c0,0,0.1,0,0.1,0c0.5,0,0.9,0,1.4,0c0,0.2-0.1,0.2-0.1,0.3
		c-1.7,1.7-3.3,3.4-5,5c-0.1,0.1-0.2,0.3-0.4,0.1C18.1,12.7,18.2,12,18.5,11.5z"/>
	<path class="st1" d="M18.1,13.3c0,0,0.1,0,0.1-0.1c1.8-1.8,3.6-3.6,5.4-5.5c0,0,0.1,0,0.1,0c0.1,0,0.3,0,0.4,0
		c0,0.2-0.2,0.3-0.3,0.5c-3.4,3.4-6.8,6.8-10.2,10.2c-0.1,0.1-0.2,0.2-0.4,0.3c-0.2,0-0.3,0-0.4-0.1c1-1.1,2-2,3-3.1
		c0.1-0.1,0.3-0.2,0.4-0.4c0-0.2,0.1-0.2,0.2-0.3c0.5-0.3,1-0.8,1.3-1.3C17.9,13.5,17.9,13.3,18.1,13.3z"/>
	<path class="st5" d="M9.2,36.5C9.2,36.4,9.2,36.4,9.2,36.5c0.1-0.2,0.2-0.4,0.3-0.5c0.8-0.8,1.6-1.6,2.4-2.4
		c0.1-0.1,0.3-0.4,0.5-0.1c0,0.3,0.1,0.6,0.1,0.9c0,0.2-0.1,0.4-0.3,0.5c-0.9,0.9-1.7,1.8-2.6,2.6c-0.1,0.1-0.2,0.3-0.4,0.2
		C9.2,37.4,9.2,36.9,9.2,36.5z"/>
	<path class="st1" d="M9.2,37.8c1-1,2-2,3-3c0.1-0.1,0.1-0.2,0.1-0.3c0,0,0.1,0,0.1,0c0.1,0.1,0.2,0.2,0.2,0.3c0,0,0,0.1,0,0.1
		c-1,1.1-2.1,2.1-3.2,3.2c-0.1,0.1-0.2,0.2-0.3,0.1c0-0.1,0-0.3,0-0.4C9.2,37.9,9.2,37.9,9.2,37.8z"/>
	<path class="st5" d="M37.1,33.3c-1.4,1.4-2.7,2.7-4.1,4.1c0,0-0.1,0.1-0.1,0.1c-0.4,0.1-0.8,0.1-1.2,0c-0.2-0.1-0.2-0.2-0.1-0.3
		c0.1-0.1,0.2-0.2,0.3-0.4c1.5-1.5,3.1-3.1,4.6-4.6c0.2-0.2,0.3-0.4,0.5-0.3C37.1,32.3,37.2,32.7,37.1,33.3
		C37.2,33.2,37.1,33.2,37.1,33.3z"/>
	<path class="st1" d="M37.1,31.8c-1.9,1.8-3.7,3.7-5.5,5.5c0,0-0.1,0.1-0.1,0.1c-0.1,0-0.2,0-0.4,0c-0.1-0.2,0-0.3,0.1-0.4
		c0.7-0.7,1.3-1.4,2-2c0.4-0.1,0.4-0.6,0.7-0.7c0.2,0.1,0.3-0.1,0.4-0.2c0.9-0.9,1.8-1.8,2.7-2.7c0,0.1,0,0.3,0,0.4
		C37.2,31.7,37.1,31.8,37.1,31.8z"/>
	<path class="st5" d="M13.4,18.7c0.1-0.1,0.2-0.3,0.4-0.4c3.4-3.4,6.7-6.7,10.1-10.1C23.9,8.1,24,8,24.1,7.8c0,0,0.1,0,0.1,0
		c0.5,0,0.9,0,1.4,0c0,0.2-0.1,0.3-0.3,0.5c-3.4,3.4-6.8,6.8-10.2,10.2c-0.1,0.1-0.2,0.2-0.4,0.3c-0.1,0-0.1,0-0.2,0
		C14.2,18.8,13.7,19,13.4,18.7z"/>
	<path class="st1" d="M14.8,18.7c0.1-0.1,0.3-0.3,0.4-0.4c3.3-3.3,6.7-6.7,10-10c0.1-0.1,0.2-0.3,0.4-0.4c0,0,0.1,0,0.1,0
		c0.1,0,0.3,0,0.4,0c0,0.2-0.1,0.3-0.2,0.4c-3.4,3.4-6.8,6.9-10.3,10.3c-0.1,0.1-0.2,0.2-0.3,0.2c0,0-0.1,0-0.1,0
		C15,18.8,14.9,18.8,14.8,18.7z"/>
	<path class="st5" d="M9.2,28.6c1-0.9,1.9-1.9,2.9-2.8c0.1-0.1,0.3-0.3,0.4-0.4c0.3,0.1,0.7,0.2,1,0.2c0.1,0.2,0,0.3-0.2,0.4
		c-1.3,1.3-2.5,2.5-3.8,3.8c-0.1,0.1-0.2,0.2-0.4,0.2C9.2,29.6,9.2,29.1,9.2,28.6C9.2,28.7,9.2,28.6,9.2,28.6z"/>
	<path class="st1" d="M9.2,30.1c1.5-1.4,2.9-2.9,4.4-4.4c0,0,0.1-0.1,0.1-0.1c0.1,0,0.3,0,0.4,0.1c-1.6,1.6-3.2,3.2-4.8,4.8
		c0-0.1,0-0.3,0-0.4C9.2,30.1,9.2,30.1,9.2,30.1z"/>
	<path class="st5" d="M9.2,34.4c1.4-1.4,2.7-2.7,4.1-4.1c0,0,0.1-0.1,0.1-0.1c0.4-0.1,0.8-0.1,1.2,0c0.2,0.1,0.2,0.2,0.1,0.3
		c-0.1,0.1-0.2,0.2-0.3,0.4c-1.5,1.5-3.1,3.1-4.6,4.6c-0.2,0.2-0.3,0.4-0.5,0.3C9.2,35.4,9.2,35,9.2,34.4
		C9.2,34.5,9.2,34.5,9.2,34.4z"/>
	<path class="st1" d="M9.2,35.9c1.9-1.8,3.7-3.7,5.5-5.5c0,0,0.1-0.1,0.1-0.1c0.1,0,0.2,0,0.4,0c0.1,0.3-0.1,0.4-0.2,0.5
		c-0.6,0.6-1.3,1.3-1.9,1.9c-0.3,0.1-0.4,0.6-0.7,0.7c-0.2-0.1-0.3,0.1-0.4,0.2c-0.9,0.9-1.8,1.8-2.7,2.7c0-0.1,0-0.3,0-0.4
		C9.2,35.9,9.2,35.9,9.2,35.9z"/>
	<path class="st5" d="M37.1,39.1c-2,2-4,4-6,6c0,0-0.1,0-0.1,0c-0.5,0-0.9,0-1.4,0c0-0.2,0.1-0.3,0.3-0.5c2.2-2.2,4.5-4.5,6.7-6.7
		c0.1-0.1,0.2-0.3,0.5-0.3C37.1,38.1,37.2,38.5,37.1,39.1C37.2,39,37.1,39.1,37.1,39.1z"/>
	<path class="st1" d="M37.1,37.6c-1.2,1.2-2.5,2.4-3.7,3.6c-1.3,1.3-2.5,2.5-3.8,3.8c0,0-0.1,0-0.1,0c-0.1,0-0.3,0-0.4,0
		c1.4-1.4,2.7-2.8,4.1-4.2c1.3-1.3,2.5-2.5,3.8-3.8c0,0.1,0,0.3,0,0.4C37.2,37.6,37.1,37.6,37.1,37.6z"/>
	<path class="st5" d="M15.3,18.7c0.1-0.1,0.2-0.3,0.4-0.4c3.4-3.4,6.7-6.7,10.1-10.1C25.8,8.1,26,8,26.1,7.8c0,0,0.1,0,0.1,0
		c0.5,0,0.9,0,1.4,0c0,0.2-0.1,0.3-0.3,0.5c-3.4,3.4-6.8,6.8-10.2,10.2c-0.1,0.1-0.2,0.2-0.4,0.3c-0.1,0-0.1,0-0.2,0
		C16.1,18.8,15.7,19,15.3,18.7z"/>
	<path class="st1" d="M16.8,18.7c0.1-0.1,0.2-0.3,0.4-0.4c3.4-3.4,6.7-6.7,10.1-10.1c0.1-0.1,0.2-0.3,0.4-0.4c0,0,0.1,0,0.1,0
		c0.1,0,0.3,0,0.4,0c-0.1,0.1-0.2,0.3-0.4,0.4c-3.4,3.4-6.7,6.7-10.1,10.1c-0.1,0.1-0.2,0.3-0.4,0.4c0,0-0.1,0.1-0.1,0.1
		C17,18.8,16.8,18.8,16.8,18.7z"/>
	<path class="st1" d="M37.1,12.4c-1.2,1.1-2.3,2.3-3.5,3.4c-0.9,0.9-1.9,1.9-2.8,2.9c0,0-0.1,0.1-0.1,0.1c-0.1,0-0.2,0-0.4,0
		c-0.1-0.2,0.1-0.3,0.2-0.4c2.1-2.1,4.1-4.1,6.2-6.2c0.1-0.1,0.2-0.3,0.4-0.2c0.1,0.1,0,0.2,0,0.4C37.2,12.3,37.1,12.3,37.1,12.4z"
		/>
	<path class="st2" d="M37.2,12.3c0-0.1,0-0.3,0-0.4c0,0,0-0.1,0-0.1C38.1,10.9,39,10,40,9.1c0,0.1,0.1,0.2,0.1,0.4
		c-0.8,0.8-1.7,1.6-2.5,2.5C37.4,12,37.3,12.2,37.2,12.3z"/>
	<path class="st5" d="M9.2,38.3c1-1,2-2,3.1-3c0.1-0.1,0.3-0.3,0.4-0.4c0.4-0.1,0.8,0,1.2,0c0.2,0.1,0.1,0.3,0,0.4
		c-0.1,0.2-0.3,0.3-0.4,0.5c-1.2,1.2-2.4,2.4-3.7,3.7c-0.2,0.2-0.3,0.4-0.5,0.3C9.2,39.3,9.2,38.9,9.2,38.3
		C9.2,38.4,9.2,38.3,9.2,38.3z"/>
	<path class="st1" d="M9.2,39.8c1.6-1.5,3.2-3.1,4.7-4.7c0,0,0.1-0.1,0.1-0.1c0.1,0,0.2,0,0.4,0c0.1,0.2-0.1,0.3-0.2,0.4
		c-1.5,1.6-3.1,3.1-4.7,4.7c-0.1,0.1-0.2,0.3-0.4,0.2c-0.1-0.1,0-0.2,0-0.4C9.2,39.8,9.2,39.8,9.2,39.8z"/>
	<path class="st2" d="M9.2,39.9c0,0.1,0,0.3,0,0.4c0,0,0,0.1,0,0.1c-0.9,0.8-1.7,1.7-2.6,2.5c-0.1,0.1-0.2,0.3-0.4,0.2
		c0-0.1,0-0.2,0-0.3C7,42,7.8,41.2,8.6,40.4C8.8,40.2,9,40,9.2,39.9z"/>
	<path class="st5" d="M20.9,39.7c-1.6,1.6-3.1,3.2-4.7,4.7c-0.2,0.2-0.4,0.4-0.6,0.7c0,0-0.1,0-0.1,0c-0.5,0-0.9,0-1.4,0
		c0-0.2,0.1-0.3,0.2-0.4c1.6-1.6,3.3-3.3,4.9-4.9c0.1-0.1,0.2-0.2,0.3-0.2c0.1,0,0.1,0,0.2,0C20.1,39.6,20.5,39.4,20.9,39.7z"/>
	<path class="st1" d="M19.5,39.7c-1.6,1.7-3.3,3.3-4.9,5c-0.1,0.1-0.3,0.3-0.4,0.4c0,0-0.1,0-0.1,0c-0.1,0.1-0.2,0.1-0.3,0
		c-0.2-0.2,0-0.3,0.1-0.4c1.7-1.7,3.4-3.5,5.2-5.2c0,0,0.1,0,0.1,0C19.3,39.6,19.4,39.6,19.5,39.7z"/>
	<path class="st2" d="M13.6,45.1c0.1,0,0.3,0,0.4,0c-0.9,0.9-1.8,1.8-2.7,2.7C11.2,48,11.1,48,10.9,48c-0.1,0-0.1,0-0.2,0
		C11.7,47,12.6,46.1,13.6,45.1C13.6,45.1,13.6,45.1,13.6,45.1z"/>
	<path class="st5" d="M31.9,7.8C31.9,7.8,32,7.8,31.9,7.8c0.5,0,1,0,1.5,0c0,0.2-0.1,0.3-0.3,0.5c-3.4,3.4-6.8,6.8-10.2,10.2
		c-0.1,0.1-0.2,0.2-0.4,0.3c-0.1,0-0.1,0-0.2,0c-0.4,0-0.9,0.1-1.2-0.1c0.1-0.1,0.2-0.3,0.4-0.4c3.4-3.4,6.7-6.7,10.1-10.1
		C31.7,8.1,31.8,8,31.9,7.8z"/>
	<path class="st1" d="M22.6,18.7c0.1-0.1,0.2-0.3,0.4-0.4c3.4-3.4,6.7-6.7,10.1-10.1c0.1-0.1,0.2-0.3,0.4-0.4c0,0,0.1,0,0.1,0
		c0.1-0.1,0.2-0.1,0.3,0c0.2,0.2,0,0.3-0.1,0.4c-0.3,0.3-0.7,0.7-1,1c-3,3-6.1,6.1-9.1,9.1c-0.2,0.2-0.3,0.3-0.5,0.5
		c0,0-0.1,0-0.1,0C22.8,18.8,22.7,18.8,22.6,18.7z"/>
	<path class="st2" d="M33.9,7.8c-0.1,0-0.3,0-0.4,0C34.2,7,35,6.3,35.7,5.5c0.1-0.1,0.3-0.3,0.4-0.4c0.1,0,0.3,0.1,0.4,0.1
		C35.6,6.1,34.8,6.9,33.9,7.8C33.9,7.8,33.9,7.8,33.9,7.8z"/>
	<path class="st5" d="M9.2,40.4C9.2,40.3,9.2,40.3,9.2,40.4c1.8-1.8,3.5-3.6,5.3-5.3c0,0,0.1-0.1,0.1-0.1c0.4-0.1,0.8-0.1,1.2,0
		c0.3,0.1,0.1,0.3,0,0.4c-0.7,0.7-1.3,1.4-2.1,2.1c0,0-0.1,0-0.1,0c-0.9,0.1-1,0.2-1.2,1.2c-0.4,0.6-1,1-1.5,1.6
		c-0.4,0.4-0.8,0.8-1.2,1.2c-0.1,0.1-0.2,0.3-0.4,0.2C9.2,41.3,9.2,40.8,9.2,40.4z"/>
	<path class="st1" d="M9.2,41.7c0.9-0.9,1.8-1.8,2.7-2.7c0.1-0.1,0.3-0.2,0.4-0.4c0.1,0.1,0.1,0.2,0.2,0.3c0,0,0,0,0,0.1
		c0,0,0,0.1,0,0.1c-0.7,0.8-1.5,1.5-2.3,2.3c-0.3,0.3-0.7,0.7-0.8,1.1c0-0.1-0.1-0.2-0.1-0.3c-0.1-0.2-0.1-0.3,0-0.5
		C9.2,41.8,9.2,41.7,9.2,41.7z"/>
	<path class="st2" d="M9.2,41.8c0,0.2,0,0.3,0,0.5c-0.7,0.7-1.4,1.4-2.1,2c-0.1,0.1-0.2,0.3-0.4,0.3c-0.1-0.1-0.1-0.2-0.1-0.3
		c0.7-0.7,1.5-1.4,2.2-2.2C8.9,42,9,41.9,9.2,41.8z"/>
	<path class="st5" d="M13.6,45.1C13.6,45.1,13.6,45.1,13.6,45.1c-0.5,0-1,0-1.5,0c0-0.2,0.1-0.3,0.2-0.4c1.6-1.6,3.3-3.3,4.9-4.9
		c0.1-0.1,0.2-0.2,0.3-0.2c0.1,0,0.1,0,0.2,0c0.4,0,0.9-0.1,1.2,0.1c-1.6,1.6-3.1,3.1-4.7,4.7C14.1,44.6,13.9,44.9,13.6,45.1z"/>
	<path class="st1" d="M17.5,39.7c-1.6,1.7-3.3,3.3-4.9,5c-0.1,0.1-0.3,0.3-0.4,0.4c0,0-0.1,0-0.1,0c-0.1,0-0.2,0.1-0.3,0
		c0,0,0,0,0-0.1c-0.1-0.2,0.1-0.3,0.2-0.4c1.7-1.7,3.3-3.3,5-5c0,0,0.1-0.1,0.1-0.1c0,0,0.1,0,0.1,0C17.3,39.6,17.4,39.6,17.5,39.7z
		"/>
	<path class="st2" d="M11.8,45.1c0.1,0,0.2,0,0.3,0c-0.8,0.8-1.5,1.5-2.2,2.3c-0.1,0.1-0.2,0.1-0.3,0.1c-0.1,0-0.1-0.1-0.2-0.1
		c0.7-0.8,1.5-1.5,2.2-2.3C11.6,45.1,11.7,45.1,11.8,45.1z"/>
	<path class="st5" d="M37.2,11.8C37.2,11.8,37.1,11.9,37.2,11.8c-1.3,1.4-2.6,2.6-3.9,3.9c-1,1-2,2-2.9,3c0,0-0.1,0.1-0.1,0.1
		c-0.4,0.1-0.8,0.1-1.2,0c-0.2-0.1-0.2-0.2-0.1-0.3c0.1-0.1,0.2-0.2,0.3-0.4c2.4-2.4,4.8-4.8,7.3-7.3c0.2-0.2,0.3-0.4,0.6-0.4
		C37.1,10.9,37.2,11.4,37.2,11.8z"/>
	<path class="st1" d="M37.1,10.5c-0.1,0.1-0.2,0.2-0.3,0.3c-2.6,2.6-5.1,5.1-7.7,7.7c-0.1,0.1-0.1,0.1-0.2,0.2c0,0-0.1,0.1-0.1,0.1
		c-0.1,0-0.2,0-0.4,0c-0.1-0.3,0.2-0.4,0.3-0.6c2.3-2.3,4.6-4.6,6.9-6.9c0.4-0.4,0.9-0.9,1.3-1.3c0,0,0,0,0.1,0c0.1,0,0.1,0.1,0,0.2
		C37.1,10.3,37.1,10.4,37.1,10.5z"/>
	<path class="st2" d="M37.1,10.1c0-0.1,0-0.1,0-0.2c0.7-0.6,1.3-1.2,1.9-1.8c0.1-0.1,0.2-0.3,0.5-0.3c0,0.1,0.1,0.1,0.1,0.2
		c-0.7,0.8-1.4,1.4-2.1,2.2C37.2,10.3,37.2,10.2,37.1,10.1z"/>
	<path class="st5" d="M33.9,7.8C33.9,7.8,33.9,7.8,33.9,7.8c0.5,0,0.9,0,1.3,0.2c0,0.2-0.1,0.3-0.3,0.5c-3.3,3.3-6.7,6.7-10,10
		c-0.1,0.1-0.2,0.2-0.4,0.3c-0.1,0-0.1,0-0.2,0c-0.4,0-0.9,0.1-1.2-0.1c0.1-0.1,0.2-0.3,0.4-0.4c3.4-3.4,6.7-6.7,10.1-10.1
		C33.6,8.1,33.7,8,33.9,7.8z"/>
	<path class="st1" d="M24.5,18.7c0.2-0.2,0.3-0.3,0.5-0.5c3.3-3.3,6.5-6.5,9.8-9.8C34.9,8.3,35,8.1,35.1,8c0,0,0.1,0,0.1,0
		c0.1,0,0.2,0,0.3,0.1c0,0,0,0.1,0,0.1c0,0.2-0.2,0.3-0.3,0.4c-3.3,3.3-6.6,6.6-9.8,9.9c-0.1,0.1-0.2,0.2-0.3,0.3c0,0-0.1,0-0.1,0
		C24.7,18.8,24.6,18.8,24.5,18.7z"/>
	<path class="st2" d="M35.5,8.1c-0.1,0-0.2,0-0.3-0.1c0.7-0.8,1.5-1.5,2.3-2.2c0.1,0,0.1,0.1,0.2,0.1c0,0.2-0.2,0.3-0.3,0.5
		C36.7,6.9,36.1,7.6,35.5,8.1z"/>
	<path class="st5" d="M30,35c0.5,0,1,0,1.5,0c0,0.1,0,0.2-0.1,0.2c-0.7,0.7-1.4,1.5-2.2,2.2c0,0-0.1,0-0.1,0c-0.4,0-0.8,0.1-1.2,0
		c-0.2-0.1-0.2-0.2-0.1-0.3C28.5,36.4,29.1,35.6,30,35z"/>
	<path class="st1" d="M30,35c-0.7,0.8-1.5,1.5-2.2,2.3c0,0-0.1,0.1-0.1,0.1c-0.1,0-0.3,0-0.4-0.1c0.7-0.8,1.5-1.5,2.2-2.3
		C29.6,35,29.8,35,30,35z"/>
	<path class="st1" d="M29.2,37.3c0.7-0.8,1.5-1.5,2.2-2.3c0,0,0.1,0,0.1,0c0.1-0.1,0.2-0.1,0.4,0c0.1,0.2,0,0.3-0.1,0.4
		c-0.7,0.7-1.4,1.4-2.1,2.1c0,0-0.1,0-0.1,0C29.4,37.5,29.3,37.4,29.2,37.3z"/>
	<path class="st2" d="M31.9,35c-0.1,0-0.3,0-0.4,0c0.7-0.7,1.4-1.5,2.2-2.1c0,0.1,0.1,0.1,0.1,0.2c0.1,0.1,0,0.2-0.1,0.3
		c-0.6,0.6-1.1,1.2-1.7,1.7C32,35.1,32,35,31.9,35z"/>
	<path class="st5" d="M9.3,42.6c0-0.3,0.1-0.6,0.3-0.8c0.9-0.9,1.8-1.8,2.8-2.7c0.3,0.2,0.5,0.4,0.8,0.6c0,0.1,0,0.2-0.1,0.3
		c-1,1.1-2.1,2.1-3.2,3.1c-0.1,0.1-0.2,0.3-0.4,0.1C9.3,43.1,9.3,42.8,9.3,42.6z"/>
	<path class="st1" d="M9.5,43.3c0.1,0,0.2,0,0.3-0.1c1.1-1.2,2.3-2.3,3.4-3.5c0,0,0.1-0.1,0.1-0.1c0.1,0,0.2,0,0.4,0
		c0.1,0.2,0,0.3-0.1,0.4c-1.2,1.2-2.5,2.5-3.7,3.7c0,0-0.1,0-0.1,0c-0.1-0.1-0.2-0.2-0.2-0.3C9.5,43.4,9.5,43.3,9.5,43.3z"/>
	<path class="st2" d="M9.5,43.4c0.1,0.1,0.1,0.2,0.2,0.3c-0.7,0.7-1.5,1.4-2.2,2.1c0-0.1-0.1-0.1-0.1-0.2c0-0.1,0.1-0.2,0.1-0.3
		C8.2,44.8,8.8,44,9.5,43.4z"/>
	<path class="st5" d="M16.5,35c0.5,0,0.9,0,1.4,0c0,0.1,0,0.2-0.1,0.2c-0.7,0.7-1.4,1.5-2.2,2.2c0,0-0.1,0-0.1,0
		c-0.4,0-0.8,0.1-1.2,0c-0.3-0.2-0.1-0.3,0-0.4c0.7-0.7,1.3-1.4,2.1-2C16.4,35,16.4,35,16.5,35z"/>
	<path class="st2" d="M16.5,35c0,0-0.1,0-0.1,0c-0.1,0.1-0.2,0.1-0.3,0c-0.2-0.2,0-0.3,0.1-0.4c0.7-0.7,1.3-1.4,2.1-2
		c0,0,0.1,0,0.1,0c0.1,0,0.3,0,0.4,0C17.9,33.5,17.2,34.2,16.5,35z"/>
	<path class="st1" d="M15.6,37.3c0.7-0.8,1.5-1.5,2.2-2.3c0,0,0.1,0,0.1,0c0.1,0,0.3,0,0.4,0c0,0.1,0,0.2-0.1,0.3
		c-0.7,0.7-1.4,1.4-2.1,2.1c0,0-0.1,0-0.1,0C15.8,37.5,15.7,37.4,15.6,37.3z"/>
	<path class="st5" d="M17,39.7c-1.6,1.6-3.3,3.3-4.9,4.9c-0.1,0.1-0.3,0.3-0.4,0.4c-0.4,0-0.8-0.2-1.1-0.4c-0.1-0.2,0.1-0.3,0.2-0.4
		c1.5-1.5,3-3.1,4.6-4.6c0.1-0.1,0.1-0.1,0.2-0.1c0.1,0,0.1,0,0.2,0C16.2,39.6,16.7,39.4,17,39.7z"/>
	<path class="st1" d="M15.6,39.7c-1.5,1.5-3,3-4.5,4.5c-0.1,0.1-0.3,0.3-0.4,0.4c0,0,0,0,0,0l0,0c-0.1,0-0.2,0-0.2-0.1
		c0,0,0,0,0-0.1c-0.1-0.2,0.1-0.3,0.2-0.4c1.5-1.5,2.9-2.9,4.4-4.4c0,0,0.1-0.1,0.1-0.1c0,0,0.1,0,0.1,0
		C15.4,39.6,15.5,39.6,15.6,39.7z"/>
	<path class="st2" d="M10.4,44.5c0.1,0,0.1,0.1,0.2,0.1c-0.7,0.8-1.5,1.4-2.1,2.2c-0.1,0-0.2-0.1-0.3-0.2c0.7-0.7,1.3-1.4,2-2
		C10.3,44.6,10.4,44.6,10.4,44.5z"/>
	<path class="st5" d="M37,9.9c0,0.2-0.2,0.4-0.4,0.5c-2.6,2.6-5.2,5.2-7.8,7.8c-0.1,0.1-0.2,0.3-0.4,0.4c0,0-0.1,0.1-0.1,0.1
		c-0.4,0.1-0.8,0.1-1.2,0c-0.2-0.1-0.2-0.2-0.1-0.3c0.1-0.1,0.2-0.2,0.3-0.4c2.9-2.9,5.8-5.8,8.6-8.6c0.2-0.2,0.3-0.5,0.6-0.3
		C36.8,9.4,36.9,9.6,37,9.9z"/>
	<path class="st1" d="M36.6,9.2c-0.2,0-0.3,0.1-0.4,0.2c-3.1,3.1-6.1,6.1-9.2,9.2c0,0-0.1,0.1-0.1,0.1c0,0-0.1,0.1-0.1,0.1
		c-0.1,0-0.2,0-0.4,0c-0.1-0.3,0.2-0.4,0.3-0.6c2-2,4-4,6-6c1-1,2-2,3-3c0.1-0.1,0.3-0.3,0.5-0.4c0,0,0.1,0,0.1,0
		c0.1,0,0.1,0.1,0.1,0.2C36.5,9,36.6,9.1,36.6,9.2z"/>
	<path class="st2" d="M36.5,9c0-0.1-0.1-0.1-0.1-0.2C37,8,37.8,7.3,38.5,6.6c0.1,0,0.2,0.1,0.2,0.2c-0.7,0.7-1.3,1.4-2,2
		C36.7,8.9,36.6,8.9,36.5,9z"/>
	<path class="st5" d="M36.3,8.8c-0.1,0.1-0.3,0.3-0.4,0.4c-3,3-6,6-9.1,9.1c-0.1,0.1-0.2,0.3-0.4,0.4c0,0.1-0.1,0.1-0.1,0.1
		c-0.4,0-0.9,0.2-1.3-0.1c0.1-0.1,0.2-0.2,0.3-0.4c3.3-3.3,6.5-6.5,9.8-9.8c0.1-0.1,0.2-0.2,0.4-0.3C35.8,8.3,36.1,8.5,36.3,8.8z"/>
	<path class="st5" d="M15.1,39.7c-1.4,1.4-2.9,2.9-4.3,4.3c-0.1,0.1-0.3,0.3-0.4,0.4c-0.3-0.2-0.5-0.4-0.7-0.7
		c0-0.2,0.2-0.3,0.3-0.5c1.2-1.2,2.4-2.4,3.6-3.6c0-0.1,0.1-0.1,0.1-0.1C14.2,39.5,14.7,39.4,15.1,39.7z"/>
	<path class="st0" d="M20.7,32.7c0.3,0,0.2,0.2,0.2,0.3c-0.1,0.3-0.2,0.6-0.2,0.9c-0.1,0.2-0.1,0.5-0.1,0.7c0,0.3-0.1,0.4-0.4,0.4
		c-0.2,0.1-0.3,0.1-0.5,0.1c-0.4,0-0.9,0.2-1.3-0.2c0.7-0.8,1.5-1.5,2.2-2.3C20.7,32.7,20.7,32.7,20.7,32.7z"/>
	<path class="st0" d="M32,35c0.6-0.6,1.2-1.3,1.8-1.9c0,0,0.1,0,0.1,0c0.1,0.4,0.1,0.7,0.1,1.1c-0.1,0.3-0.2,0.7-0.7,0.8
		C32.9,35.2,32.5,35.3,32,35z"/>
	<path class="st0" d="M21.5,28c0.5,0,0.9,0,1.4,0c-0.7,0.8-1.5,1.5-2.2,2.3c0,0-0.1,0-0.1,0c-0.4,0.2-0.8,0.1-1.2,0.1
		c-0.3-0.2-0.1-0.3,0-0.4c0.7-0.7,1.3-1.4,2.1-2C21.4,28,21.5,28,21.5,28z"/>
	<path class="st5" d="M18.4,35c0.5,0,0.9,0,1.4,0c0,0.1,0,0.2-0.1,0.2c-0.7,0.7-1.4,1.5-2.2,2.2c-0.1,0-0.1,0-0.2,0
		c-0.4,0-0.9,0.1-1.2-0.1C16.8,36.6,17.6,35.8,18.4,35C18.3,35,18.4,35,18.4,35z"/>
	<path class="st5" d="M19.2,30.3c0.5,0,0.9,0,1.4,0c-0.7,0.8-1.5,1.5-2.2,2.3c0,0-0.1,0-0.1,0c-0.4,0.2-0.8,0.1-1.2,0.1
		c-0.3-0.1-0.1-0.3,0-0.4c0.7-0.7,1.3-1.4,2.1-2C19.1,30.3,19.1,30.3,19.2,30.3z"/>
	<path class="st0" d="M17,39.7c-0.5,0-0.9,0-1.4,0c0-0.1,0-0.2,0.1-0.3c0.7-0.7,1.3-1.4,2.1-2c0,0,0.1,0,0.1,0c0.5,0,0.9,0,1.4,0
		c0,0.1,0,0.2-0.1,0.3c-0.6,0.6-1.2,1.2-1.8,1.8c-0.1,0.1-0.2,0.1-0.3,0.2C17.1,39.7,17.1,39.7,17,39.7z"/>
	<path class="st2" d="M17.1,39.7c0.7-0.8,1.5-1.5,2.2-2.3c0,0,0.1,0,0.1,0c0.1,0,0.3,0,0.4,0c0,0.1,0,0.2-0.1,0.3
		c-0.6,0.6-1.2,1.2-1.8,1.8c-0.1,0.1-0.2,0.1-0.3,0.2c0,0-0.1,0-0.1,0C17.4,39.7,17.3,39.7,17.1,39.7z"/>
	<path class="st1" d="M18,37.3c0,0-0.1,0-0.1,0c-0.1,0.1-0.3,0.1-0.4,0c0.7-0.8,1.5-1.5,2.2-2.3c0.2,0,0.3,0,0.5,0
		C19.5,35.8,18.8,36.6,18,37.3z"/>
	<path class="st0" d="M26.5,30.8c0.2,0.4,0.5,0.7,1,0.4c-1.1,1.1-2.1,2.1-3.2,3.2c-0.1,0.1-0.3,0.2-0.2,0.4
		c-0.1,0.2-0.3,0.2-0.5,0.3c-0.3,0-0.5,0.1-0.8,0.1c-0.2,0-0.4,0-0.5-0.2c0-0.1-0.1-0.1-0.1-0.2c0.1,0,0.2-0.1,0.3-0.2
		c1.2-1.2,2.4-2.4,3.6-3.6C26.3,30.9,26.3,30.9,26.5,30.8C26.4,30.8,26.4,30.8,26.5,30.8z"/>
	<path class="st0" d="M17.6,39.7c0.7-0.8,1.5-1.5,2.2-2.3c0,0,0.1,0,0.1,0c0.4-0.2,0.8-0.1,1.2-0.1c0.2,0.1,0.2,0.2,0.1,0.3
		c-0.7,0.7-1.3,1.5-2.2,2.1c0,0-0.1,0-0.1,0C18.5,39.7,18.1,39.7,17.6,39.7z"/>
	<path class="st5" d="M21.3,37.4c-0.5,0-0.9,0-1.4,0c0.7-0.7,1.4-1.5,2.2-2.2c0.1-0.1,0.2-0.1,0.3-0.1c0.4,0.2,0.8,0,1.3,0
		c0.1,0.2,0,0.3-0.1,0.3c-0.7,0.7-1.3,1.4-2.1,2C21.4,37.4,21.4,37.4,21.3,37.4z"/>
	<path class="st0" d="M20.9,39.7c-0.5,0-0.9,0-1.4,0c0-0.1,0-0.2,0.1-0.3c0.7-0.7,1.3-1.4,2.1-2c0,0,0.1,0,0.1,0c0.5,0,0.9,0,1.4,0
		c0,0.1,0,0.2-0.1,0.3c-0.6,0.6-1.2,1.2-1.8,1.8c-0.1,0.1-0.2,0.1-0.3,0.2C21,39.7,21,39.7,20.9,39.7z"/>
	<path class="st1" d="M21.9,37.3c0,0-0.1,0-0.1,0c-0.1,0.1-0.3,0.1-0.4,0c0.6-0.6,1.3-1.3,1.9-1.9c0.1-0.1,0.2-0.3,0.3-0.4
		c0.1-0.1,0.3-0.1,0.4-0.2c0.1,0,0.2,0,0.3,0C23.5,35.7,22.7,36.5,21.9,37.3z"/>
	<path class="st2" d="M21,39.7c0.7-0.8,1.5-1.5,2.2-2.3c0,0,0.1,0,0.1,0c0.1,0,0.3,0,0.4,0c0,0.1,0,0.2-0.1,0.3
		c-0.6,0.6-1.2,1.2-1.8,1.8c-0.1,0.1-0.2,0.1-0.3,0.2c0,0-0.1,0-0.1,0C21.3,39.7,21.2,39.7,21,39.7z"/>
	<path class="st0" d="M21.5,39.7c0.7-0.8,1.5-1.5,2.2-2.3c0,0,0.1,0,0.1,0c0.5,0,0.9,0,1.4,0c0,0.1,0,0.2-0.1,0.3
		c-0.6,0.6-1.2,1.2-1.8,1.8c-0.1,0.1-0.2,0.1-0.3,0.2c0,0-0.1,0-0.1,0C22.4,39.7,22,39.7,21.5,39.7z"/>
	<path class="st2" d="M23,39.7c0.7-0.8,1.5-1.5,2.2-2.3c0,0,0.1,0,0.1,0c0.1,0,0.3,0,0.4,0c0,0.1,0,0.2-0.1,0.3
		c-0.6,0.6-1.2,1.2-1.8,1.8c-0.1,0.1-0.2,0.1-0.3,0.2c0,0-0.1,0-0.1,0C23.2,39.7,23.1,39.7,23,39.7z"/>
	<path class="st0" d="M23.5,39.7c0.7-0.8,1.5-1.5,2.2-2.3c0,0,0.1,0,0.1,0c0.5,0,0.9,0,1.4,0c0,0.1,0,0.2-0.1,0.3
		c-0.6,0.6-1.2,1.2-1.8,1.8c-0.1,0.1-0.2,0.1-0.3,0.2c0,0-0.1,0-0.1,0C24.4,39.7,23.9,39.7,23.5,39.7z"/>
	<path class="st2" d="M24.9,39.7c0.7-0.8,1.5-1.5,2.2-2.3c0,0,0.1,0,0.1,0c0.1,0,0.3,0,0.4,0c0,0.1,0,0.2-0.1,0.3
		c-0.6,0.6-1.2,1.2-1.8,1.8c-0.1,0.1-0.2,0.1-0.3,0.2c0,0-0.1,0-0.1,0C25.2,39.7,25,39.7,24.9,39.7z"/>
	<path class="st0" d="M13.9,15.6c-0.5,0-0.9,0-1.4,0c1.9-1.9,3.7-3.7,5.6-5.6c0.1-0.1,0.2-0.2,0.3-0.3c0,0.5,0,0.9,0,1.4l0,0
		c0,0.1,0,0.2-0.1,0.3c-0.9,1-1.8,1.9-2.8,2.8c-0.5,0.5-0.9,1-1.5,1.4C14.1,15.5,14,15.5,13.9,15.6L13.9,15.6z"/>
	<path class="st0" d="M30.7,18.7c0,0,0.1,0,0.1,0c0.3,0,0.5,0,0.9,0c-0.5,0.4-0.9,0.8-1.3,1.2c-0.3,0.3-0.6,0.5-0.8,0.8
		C29.4,21,29,21.1,28.5,21c0-0.1,0-0.2,0.1-0.3c0.6-0.6,1.2-1.2,1.8-1.8C30.5,18.8,30.6,18.8,30.7,18.7z"/>
	<path class="st4" d="M26.2,23.3c0.1,0,0.3,0,0.5,0c-0.3,0.3-0.6,0.6-0.9,0.8c-0.3,0.3-0.6,0.6-0.8,0.9c-0.2,0.5-0.6,0.6-1.1,0.5
		c0-0.1,0-0.2,0.1-0.3c0.7-0.7,1.3-1.4,2.1-2C26.1,23.3,26.1,23.3,26.2,23.3z"/>
	<path class="st1" d="M26.2,23.3c0,0-0.1,0-0.1,0c-0.1,0.1-0.2,0.1-0.3,0c-0.1-0.2,0-0.3,0.1-0.4c0.7-0.7,1.4-1.4,2.1-2.1
		c0,0,0.1,0,0.1,0c0.1,0,0.3,0,0.3,0.1C27.7,21.8,26.9,22.6,26.2,23.3z"/>
	<path class="st1" d="M21.5,28c0,0-0.1,0-0.1,0c-0.1,0.1-0.2,0.1-0.4,0c-0.1-0.2,0-0.3,0.1-0.4c0.7-0.7,1.4-1.4,2.1-2.1
		c0,0,0.1,0,0.1,0c0.1,0,0.3,0,0.3,0.1C23,26.5,22.3,27.2,21.5,28z"/>
	<path class="st2" d="M28.4,21c-0.1,0-0.3,0-0.4,0c0-0.1,0-0.2,0.1-0.3c0.6-0.6,1.2-1.2,1.8-1.8c0.1-0.1,0.2-0.1,0.3-0.2
		c0,0,0.1,0,0.1,0c0.1,0,0.3,0,0.4,0C30,19.5,29.3,20.2,28.4,21C28.5,21,28.4,21,28.4,21z"/>
	<path class="st2" d="M23.7,25.7c-0.1,0-0.3,0-0.4,0c0-0.1,0-0.2,0.1-0.3c0.7-0.7,1.3-1.4,2.1-2c0,0,0.1,0,0.1,0c0.1,0,0.3,0,0.4,0
		C25.3,24.1,24.6,24.9,23.7,25.7C23.8,25.7,23.8,25.7,23.7,25.7z"/>
	<path class="st0" d="M19.1,18.7c0,0,0.1,0,0.1,0c0.5,0,0.9,0,1.4,0c0,0.1,0,0.2-0.1,0.2c-0.7,0.7-1.4,1.5-2.2,2.2c0,0-0.1,0-0.1,0
		c-0.4,0-0.8,0.1-1.2,0c-0.2-0.1-0.2-0.2-0.1-0.3C17.6,20.1,18.2,19.3,19.1,18.7z"/>
	<path class="st2" d="M18.3,21c0.7-0.8,1.5-1.5,2.2-2.3c0,0,0.1,0,0.1,0c0.1,0,0.3,0,0.4,0c0,0.1,0,0.2-0.1,0.3
		c-0.7,0.7-1.4,1.4-2.1,2.1c0,0-0.1,0-0.1,0C18.5,21.1,18.4,21.1,18.3,21z"/>
	<path class="st0" d="M18.8,21c0.7-0.8,1.5-1.5,2.2-2.3c0,0,0.1,0,0.1,0c0.5,0,0.9,0,1.4,0c0,0.1,0,0.2-0.1,0.2
		c-0.7,0.7-1.4,1.5-2.2,2.2c-0.1,0-0.1,0-0.2,0C19.6,21.1,19.2,21.3,18.8,21z"/>
	<path class="st0" d="M17.1,18.7c0,0,0.1,0,0.1,0c0.5,0,0.9,0,1.4,0c0,0.1,0,0.2-0.1,0.3c-0.7,0.7-1.3,1.4-2.1,2c0,0-0.1,0-0.1,0
		c-0.5,0-0.9,0-1.4,0c0-0.1,0-0.2,0.1-0.3c0.6-0.6,1.2-1.2,1.8-1.8C16.9,18.8,17,18.8,17.1,18.7z"/>
	<path class="st2" d="M16.4,21c0.7-0.8,1.5-1.5,2.2-2.3c0,0,0.1,0,0.1,0c0.1,0,0.3,0,0.4,0c-0.7,0.8-1.5,1.5-2.2,2.3
		c0,0-0.1,0.1-0.1,0.1C16.6,21.1,16.5,21.1,16.4,21z"/>
	<path class="st0" d="M18.4,11.2c0-0.1,0.1-0.1,0.1-0.2c0,0.2,0,0.3,0,0.5c-0.1,0.6-0.2,1.2-0.4,1.8c-0.4,0.8-1,1.4-1.8,1.8
		c-0.6,0.2-1.2,0.3-1.8,0.4c-0.2,0-0.3,0-0.5,0c0.1,0,0.1-0.1,0.2-0.1c0.4-0.1,0.6-0.4,0.9-0.6c0.9-0.9,1.8-1.8,2.7-2.7
		C18,11.8,18.3,11.6,18.4,11.2z"/>
	<path class="st0" d="M13.4,18.7c0.5,0,0.9,0,1.4,0c0,0.1,0,0.1,0,0.2c-0.6,0.7-1.2,1.4-2,2c0,0-0.1,0-0.1,0
		c-0.2-0.3-0.3-0.7-0.3-1.1c0-0.2,0.1-0.4,0.1-0.6c0.1-0.2,0.3-0.4,0.5-0.5C13,18.7,13.2,18.7,13.4,18.7z"/>
	<path class="st10" d="M34.1,38.2c0,0.2,0,0.3,0,0.5c-0.2,0.8-0.3,0.9-1,1c-0.2,0-0.3,0-0.5,0c-0.5,0-0.9,0-1.4,0
		c0-0.2,0.1-0.2,0.1-0.3c0.7-0.7,1.3-1.3,2-2c0.1,0,0.1,0,0.2,0C33.8,37.6,34,37.9,34.1,38.2z"/>
	<path class="st2" d="M33.4,37.4c-0.1,0.3-0.3,0.4-0.5,0.6c-0.5,0.6-1.1,1.1-1.6,1.7c0,0-0.1,0-0.1,0c-0.1,0-0.3,0-0.4,0
		c0-0.1,0-0.2,0.1-0.3c0.6-0.6,1.2-1.2,1.8-1.8c0.1-0.1,0.2-0.1,0.3-0.2c0,0,0.1,0,0.1,0C33.2,37.3,33.3,37.3,33.4,37.4z"/>
	<path class="st0" d="M33,37.4c-0.7,0.8-1.5,1.5-2.2,2.3c0,0-0.1,0-0.1,0c-0.5,0-0.9,0-1.4,0c0-0.1,0-0.2,0.1-0.3
		c0.6-0.6,1.2-1.2,1.8-1.8c0.1-0.1,0.2-0.1,0.3-0.2c0,0,0.1,0,0.1,0C32.1,37.3,32.5,37.3,33,37.4z"/>
	<path class="st2" d="M31.5,37.4c-0.7,0.8-1.5,1.5-2.2,2.3c0,0-0.1,0-0.1,0c-0.1,0-0.3,0-0.4,0c0-0.1,0-0.2,0.1-0.3
		c0.7-0.7,1.3-1.4,2.1-2c0,0,0.1,0,0.1,0C31.3,37.3,31.4,37.3,31.5,37.4z"/>
	<path class="st0" d="M31,37.4c-0.7,0.8-1.5,1.5-2.2,2.3c0,0-0.1,0-0.1,0c-0.5,0-0.9,0-1.4,0c0-0.1,0-0.2,0.1-0.3
		c0.6-0.6,1.2-1.2,1.8-1.8c0.1-0.1,0.2-0.1,0.3-0.2c0,0,0.1,0,0.1,0C30.1,37.2,30.6,37.1,31,37.4z"/>
	<path class="st2" d="M29.6,37.4c-0.7,0.8-1.5,1.5-2.2,2.3c0,0-0.1,0-0.1,0c-0.1,0-0.3,0-0.4,0c0-0.1,0-0.2,0.1-0.3
		c0.6-0.6,1.2-1.2,1.8-1.8c0.1-0.1,0.2-0.1,0.3-0.2c0,0,0.1,0,0.1,0C29.3,37.3,29.4,37.3,29.6,37.4z"/>
	<path class="st0" d="M29.1,37.4c-0.7,0.8-1.5,1.5-2.2,2.3c0,0-0.1,0-0.1,0c-0.5,0-0.9,0-1.4,0c0.7-0.8,1.5-1.5,2.2-2.3
		c0,0,0.1,0,0.1,0C28.2,37.3,28.6,37.3,29.1,37.4z"/>
	<path class="st0" d="M15.3,18.7c0.5,0,0.9,0,1.4,0c0,0.1,0,0.2-0.1,0.3c-0.6,0.6-1.2,1.2-1.8,1.8c-0.1,0.1-0.2,0.1-0.3,0.2
		c0,0-0.1,0-0.1,0c-0.5,0-1,0-1.5,0c0,0,0-0.1,0-0.1c0.7-0.7,1.3-1.3,2-2c0.1-0.1,0.2-0.2,0.4-0.2C15.2,18.7,15.3,18.7,15.3,18.7z"
		/>
	<path class="st2" d="M14.4,21c0.7-0.8,1.5-1.5,2.2-2.3c0,0,0.1,0,0.1,0c0.1,0,0.3,0,0.4,0c-0.7,0.8-1.5,1.5-2.2,2.3
		c0,0-0.1,0-0.1,0C14.7,21,14.6,21,14.4,21z"/>
	<path class="st0" d="M15.5,25.7c-0.5,0-0.9,0-1.4,0c0-0.1,0-0.2,0.1-0.2c0.7-0.7,1.4-1.5,2.2-2.2c0,0,0.1,0,0.1,0
		c0.4,0,0.8-0.1,1.2,0c0.3,0.2,0.1,0.3,0,0.4c-0.7,0.7-1.3,1.4-2.1,2C15.6,25.7,15.5,25.7,15.5,25.7z"/>
	<path class="st2" d="M16.4,23.4c-0.7,0.8-1.5,1.5-2.2,2.3c0,0-0.1,0-0.1,0c-0.1,0-0.3,0-0.4,0c0-0.1,0-0.2,0.1-0.3
		c0.7-0.7,1.4-1.4,2.1-2.1c0,0,0.1,0,0.1,0C16.2,23.2,16.3,23.2,16.4,23.4z"/>
	<path class="st1" d="M15.5,25.7c0,0,0.1,0,0.1,0c0.1-0.1,0.2-0.1,0.4,0c0.1,0.2,0,0.3-0.1,0.4c-0.7,0.7-1.4,1.4-2.1,2.1
		c0,0-0.1,0-0.1,0c-0.1,0-0.3,0-0.3-0.1C14,27.2,14.7,26.5,15.5,25.7z"/>
	<path class="st3" d="M13.3,28c0.1,0,0.3,0,0.4,0c-0.2,0.5-1,1.2-1.3,1.2c0-0.1,0-0.2,0-0.3C12.4,28.4,12.6,28,13.3,28z"/>
	<path class="st0" d="M12.3,29.3c0.6-0.3,0.9-0.8,1.3-1.2c0,0,0.1,0,0.1,0c0.4-0.2,0.8-0.1,1.2-0.1c0.4,0.2,0.1,0.3,0,0.5
		c-0.4,0.4-0.9,0.9-1.3,1.3c-0.2,0.2-0.4,0.4-0.6,0.6c-0.1,0-0.3-0.1-0.4-0.1c-0.2-0.2-0.3-0.5-0.4-0.8
		C12.3,29.4,12.3,29.3,12.3,29.3z"/>
	<path class="st2" d="M15.2,18.7c-0.7,0.7-1.4,1.4-2.1,2.1c-0.1,0.1-0.2,0.1-0.3,0.1c-0.1,0-0.1,0-0.2-0.1c0.7-0.7,1.4-1.4,2-2.1
		c0,0,0.1,0,0.1,0C14.9,18.7,15.1,18.7,15.2,18.7z"/>
	<path class="st2" d="M13.1,30.3c-0.1-0.2,0.1-0.3,0.2-0.4c0.6-0.6,1.2-1.3,1.8-1.9c0,0,0.1-0.1,0.1-0.1c0.1,0,0.2,0,0.4,0
		c0.1,0.1,0,0.2,0,0.3c-0.6,0.7-1.3,1.4-2,2c0,0-0.1,0.1-0.2,0.1c0,0-0.1,0-0.1,0C13.2,30.4,13.1,30.3,13.1,30.3z"/>
	<path class="st0" d="M12.4,24.9C12.3,24.9,12.3,24.9,12.4,24.9c-0.1-0.1-0.1-0.2-0.1-0.3c0-0.9,0.3-1.3,1.2-1.2c0.1,0,0.3,0,0.4,0
		c0,0.1,0,0.2-0.1,0.3c-0.4,0.4-0.8,0.8-1.2,1.2C12.6,24.9,12.5,25,12.4,24.9z"/>
	<path class="st1" d="M16.4,21c0.1,0,0.3,0,0.4,0c0,0.1,0,0.2-0.1,0.3c-0.7,0.7-1.4,1.4-2.1,2.1c0,0-0.1,0-0.1,0
		c-0.1,0-0.3,0-0.3-0.1c0.7-0.8,1.5-1.5,2.2-2.3C16.3,21,16.3,21,16.4,21z"/>
	<path class="st2" d="M14,23.3c0.1,0,0.3,0,0.4,0c0,0.1,0,0.1,0,0.2c-0.5,0.6-1.1,1.2-1.7,1.7c0,0-0.1,0.1-0.2,0
		c-0.1-0.1-0.1-0.2-0.1-0.4C12.9,24.4,13.4,23.9,14,23.3C14,23.4,14,23.3,14,23.3z"/>
	<path class="st0" d="M12.5,25.3c0.7-0.6,1.3-1.3,1.9-1.9c0,0,0.1,0,0.1,0c0.5-0.2,0.9-0.2,1.4,0c-0.7,0.8-1.5,1.5-2.2,2.3
		c0,0-0.1,0-0.1,0C13.2,25.7,12.8,25.7,12.5,25.3C12.5,25.4,12.5,25.3,12.5,25.3z"/>
	<path class="st0" d="M12.3,33.5c0.1-0.3,0.3-0.7,0.7-0.8c0.4-0.2,0.8-0.1,1.2-0.1c0.2,0.1,0.2,0.2,0.1,0.3
		c-0.5,0.6-1.1,1.2-1.7,1.7c0,0-0.1,0-0.1,0c0,0,0,0-0.1,0C12.3,34.2,12.3,33.8,12.3,33.5z"/>
	<path class="st0" d="M14,35c0,0-0.1,0-0.1,0c-0.4-0.1-0.8,0.1-1.3-0.1c0,0,0-0.1,0-0.1c0.2-0.4,0.5-0.6,0.8-0.9
		c0.4-0.4,0.8-0.9,1.4-1.3c0,0,0.1,0,0.1,0c0.4,0,0.8-0.1,1.2,0c0.2,0.1,0.2,0.2,0.1,0.3C15.5,33.6,14.9,34.4,14,35z"/>
	<path class="st2" d="M14.8,32.7c-0.7,0.7-1.4,1.5-2.2,2.1c-0.1-0.1-0.2-0.2-0.2-0.3c0.7-0.6,1.3-1.2,1.9-1.8c0,0,0.1-0.1,0.1-0.1
		C14.6,32.6,14.7,32.6,14.8,32.7z"/>
	<path class="st5" d="M31,37.4c-0.5,0-0.9,0-1.4,0c0.7-0.8,1.5-1.5,2.2-2.3c0,0,0.1,0,0.1,0c0.5,0,0.9,0,1.4,0
		C32.6,35.8,31.9,36.6,31,37.4C31.1,37.3,31.1,37.3,31,37.4z"/>
	<path class="st0" d="M13.4,30.3c0.7-0.8,1.5-1.5,2.2-2.3c0,0,0.1-0.1,0.1-0.1c0.4-0.1,0.8-0.1,1.2,0c0.2,0.1,0.2,0.2,0,0.3
		c-0.7,0.7-1.3,1.5-2.2,2.1c0,0-0.1,0-0.1,0C14.3,30.4,13.8,30.3,13.4,30.3z"/>
	<path class="st5" d="M14.4,32.7C14.4,32.7,14.4,32.7,14.4,32.7c-0.6,0-1,0-1.5,0c0.7-0.8,1.5-1.5,2.2-2.3c0,0,0.1-0.1,0.1-0.1
		c0.4-0.1,0.8-0.1,1.2,0c0.2,0.1,0.2,0.2,0,0.3C15.9,31.3,15.3,32.1,14.4,32.7z"/>
	<path class="st2" d="M15.3,30.3C15.3,30.3,15.2,30.4,15.3,30.3c-0.2,0-0.4,0-0.5,0c0.7-0.8,1.5-1.5,2.2-2.3c0,0,0.1-0.1,0.1-0.1
		c0.1,0,0.2,0,0.4,0c0.1,0.1,0,0.2,0,0.3c-0.6,0.7-1.3,1.4-2,2C15.4,30.3,15.4,30.3,15.3,30.3z"/>
	<path class="st2" d="M14,35c0.7-0.8,1.5-1.5,2.2-2.3c0,0,0.1-0.1,0.1-0.1c0.1,0,0.2,0,0.4,0c0.1,0.1,0,0.2,0,0.3
		c-0.6,0.7-1.3,1.4-2,2c0,0-0.1,0.1-0.2,0.1c0,0-0.1,0-0.1,0C14.3,35,14.2,35,14,35z"/>
	<path class="st2" d="M21.4,37.3c0.1,0,0.3,0,0.4,0c-0.7,0.8-1.5,1.5-2.2,2.3c0,0-0.1,0-0.1,0c-0.1,0-0.3,0-0.4,0
		C19.8,38.9,20.6,38.1,21.4,37.3C21.3,37.3,21.4,37.3,21.4,37.3z"/>
	<path class="st2" d="M20.3,21c0.7-0.8,1.5-1.5,2.2-2.3c0,0,0.1,0,0.1,0c0.1,0,0.3,0,0.4,0c0,0.1,0,0.2-0.1,0.3
		c-0.7,0.7-1.4,1.4-2.1,2.1c0,0-0.1,0-0.1,0C20.5,21.1,20.3,21.1,20.3,21z"/>
	<path class="st0" d="M20.7,21c0.7-0.8,1.5-1.5,2.2-2.3c0,0,0.1,0,0.1,0c0.5,0,0.9,0,1.4,0c0,0.1,0,0.2-0.1,0.2
		c-0.7,0.7-1.4,1.5-2.2,2.2c-0.1,0-0.1,0-0.2,0C21.6,21.1,21.1,21.3,20.7,21z"/>
	<path class="st0" d="M14.5,35c0.7-0.8,1.5-1.5,2.2-2.3c0,0,0.1-0.1,0.1,0c0.5,0,0.9,0,1.4,0c-0.7,0.8-1.5,1.5-2.2,2.3
		c0,0-0.1,0.1-0.1,0C15.4,35,15,35,14.5,35z"/>
	<path class="st1" d="M15.9,35c0,0,0.1,0,0.1,0c0.1,0,0.3,0,0.4,0c-0.7,0.8-1.5,1.5-2.2,2.3c0,0-0.1,0.1-0.1,0.1
		c-0.1,0-0.3,0-0.4-0.1C14.4,36.6,15.1,35.8,15.9,35z"/>
	<path class="st4" d="M12.4,39c0-0.1-0.1-0.2-0.1-0.3c0-0.1,0-0.3,0-0.4c0.1-0.7,0.4-1,1.2-0.9c0,0.3-0.2,0.4-0.3,0.5
		C12.9,38.2,12.5,38.5,12.4,39z"/>
	<path class="st2" d="M12.4,39c0-0.3,0.1-0.5,0.3-0.8c0.3-0.3,0.6-0.6,0.9-0.9c0,0,0.1,0,0.1,0c0.1,0,0.3,0,0.4,0
		c0,0.1-0.1,0.2-0.1,0.3c-0.4,0.4-0.8,0.8-1.2,1.2C12.6,38.9,12.5,39.1,12.4,39L12.4,39z"/>
	<path class="st0" d="M12.4,39c0.6-0.5,1.1-1.1,1.6-1.6c0,0,0.1,0,0.1,0c0.5,0,0.9,0,1.4,0c0,0.1,0,0.2-0.1,0.3
		c-0.6,0.6-1.2,1.2-1.8,1.8c-0.1,0.1-0.2,0.1-0.3,0.2c0,0-0.1,0-0.1,0C12.7,39.7,12.5,39.4,12.4,39C12.4,39.1,12.4,39,12.4,39z"/>
	<path class="st0" d="M30.3,18.7c-0.7,0.8-1.5,1.5-2.2,2.3c0,0-0.1,0-0.1,0c-0.4,0.2-0.8,0.1-1.2,0.1c-0.2-0.1-0.2-0.2-0.1-0.3
		c0.7-0.7,1.3-1.5,2.2-2.1c0,0,0.1,0,0.1,0C29.4,18.7,29.8,18.7,30.3,18.7z"/>
	<path class="st2" d="M28.8,18.7c-0.7,0.8-1.5,1.5-2.2,2.3c0,0-0.1,0.1-0.1,0.1c-0.1,0-0.2,0-0.4,0c-0.1-0.1,0-0.2,0-0.3
		c0.6-0.7,1.3-1.4,2-2c0,0,0.1-0.1,0.2-0.1c0,0,0.1,0,0.1,0C28.5,18.7,28.7,18.7,28.8,18.7z"/>
	<path class="st2" d="M22.2,21c0.7-0.8,1.5-1.5,2.2-2.3c0,0,0.1,0,0.1,0c0.1,0,0.3,0,0.4,0c0,0.1,0,0.2-0.1,0.3
		c-0.7,0.7-1.4,1.4-2.1,2.1c0,0-0.1,0-0.1,0C22.4,21.1,22.3,21.1,22.2,21z"/>
	<path class="st0" d="M22.7,21c0.7-0.8,1.5-1.5,2.2-2.3c0,0,0.1,0,0.1,0c0.5,0,0.9,0,1.4,0c0,0.1,0,0.2-0.1,0.2
		c-0.7,0.7-1.4,1.5-2.2,2.2c-0.1,0-0.1,0-0.2,0C23.5,21.1,23.1,21.3,22.7,21z"/>
	<path class="st2" d="M13.3,39.7c0.7-0.8,1.5-1.5,2.2-2.3c0,0,0.1,0,0.1,0c0.1,0,0.3,0,0.4,0c0,0.1,0,0.2-0.1,0.3
		c-0.6,0.6-1.2,1.2-1.8,1.8c-0.1,0.1-0.2,0.1-0.3,0.2c0,0-0.1,0-0.1,0C13.5,39.7,13.4,39.7,13.3,39.7z"/>
	<path class="st0" d="M13.7,39.7c0.7-0.8,1.5-1.5,2.2-2.3c0,0,0.1,0,0.1,0c0.5,0,0.9,0,1.4,0c0,0.1,0,0.2-0.1,0.3
		c-0.6,0.6-1.2,1.2-1.8,1.8c-0.1,0.1-0.2,0.1-0.3,0.2c0,0-0.1,0-0.1,0C14.6,39.7,14.2,39.7,13.7,39.7z"/>
	<path class="st2" d="M15.2,39.7c0.7-0.8,1.5-1.5,2.2-2.3c0,0,0.1,0,0.1,0c0.1,0,0.3,0,0.4,0c-0.7,0.8-1.5,1.5-2.2,2.3
		c0,0-0.1,0-0.1,0C15.5,39.7,15.3,39.7,15.2,39.7z"/>
	<path class="st0" d="M28.3,18.7c-0.7,0.8-1.5,1.5-2.2,2.3c0,0-0.1,0.1-0.1,0.1c-0.4,0.1-0.8,0.1-1.2,0c-0.2-0.1-0.2-0.2,0-0.3
		c0.7-0.7,1.3-1.5,2.2-2.1c0,0,0.1,0,0.1,0C27.4,18.7,27.9,18.7,28.3,18.7z"/>
	<path class="st2" d="M26.9,18.7c-0.7,0.8-1.5,1.5-2.2,2.3c0,0-0.1,0.1-0.1,0.1c-0.1,0-0.3,0-0.4-0.1c0.7-0.8,1.5-1.5,2.2-2.3
		c0,0,0.1,0,0.1,0C26.6,18.7,26.7,18.7,26.9,18.7z"/>
	<path class="st2" d="M21,28c0.1,0,0.3,0,0.4,0c-0.7,0.8-1.5,1.5-2.2,2.3c0,0-0.1,0-0.1,0c-0.1,0.1-0.2,0.1-0.3,0
		c-0.2-0.2,0-0.3,0.1-0.4c0.7-0.7,1.3-1.4,2.1-2C20.9,28,21,28,21,28z"/>
	<path class="st1" d="M18.7,30.3c0.1,0,0.3,0,0.4,0c-0.7,0.8-1.5,1.5-2.2,2.3c0,0-0.1,0-0.1,0c-0.1,0-0.3,0-0.4,0
		c0-0.1,0-0.2,0.1-0.3c0.7-0.7,1.3-1.4,2.1-2C18.6,30.3,18.7,30.3,18.7,30.3z"/>
	<path class="st2" d="M18.4,11.2c0,0.3-0.1,0.5-0.3,0.7c-1.1,1.1-2.2,2.2-3.3,3.3c-0.2,0.2-0.4,0.3-0.7,0.3c1.1-1.1,2.2-2.3,3.3-3.4
		C17.8,11.8,18.1,11.5,18.4,11.2z"/>
	<path class="st5" d="M26.5,21C26.5,21,26.5,21,26.5,21c0.6,0,1,0,1.5,0c-0.7,0.8-1.5,1.5-2.2,2.3c0,0-0.1,0-0.1,0
		c-0.4,0.2-0.8,0.1-1.2,0.1c-0.2-0.1-0.2-0.2-0.1-0.3C25,22.4,25.6,21.6,26.5,21z"/>
	<path class="st0" d="M24.2,23.3c0.5,0,0.9,0,1.4,0c-0.7,0.8-1.5,1.5-2.2,2.3c0,0-0.1,0-0.1,0c-0.4,0.2-0.8,0.1-1.2,0.1
		c-0.3-0.2-0.1-0.3,0-0.4c0.7-0.7,1.3-1.4,2.1-2C24.1,23.3,24.2,23.3,24.2,23.3z"/>
	<path class="st5" d="M21.9,25.7c0.5,0,0.9,0,1.4,0c-0.7,0.8-1.5,1.5-2.2,2.3c0,0-0.1,0-0.1,0c-0.4,0.2-0.8,0.1-1.2,0.1
		c-0.3-0.1-0.1-0.3,0-0.4c0.7-0.7,1.3-1.4,2.1-2C21.8,25.6,21.9,25.6,21.9,25.7z"/>
	<path class="st5" d="M15.9,23.4c-0.5,0-0.9,0-1.4,0c0.7-0.8,1.5-1.5,2.2-2.3c0,0,0.1,0,0.1,0c0.5,0,0.9,0,1.4,0
		c0,0.1,0,0.2-0.1,0.3c-0.6,0.6-1.2,1.2-1.8,1.8C16.2,23.2,16.1,23.3,15.9,23.4C15.9,23.3,15.9,23.4,15.9,23.4z"/>
	<path class="st1" d="M16,23.3c0.7-0.8,1.5-1.5,2.2-2.3c0,0,0.1,0,0.1,0c0.1,0,0.3,0,0.4,0c0,0.1,0,0.2-0.1,0.3
		c-0.6,0.6-1.2,1.2-1.8,1.8c-0.1,0.1-0.2,0.1-0.3,0.2c0,0-0.1,0-0.1,0C16.2,23.4,16.1,23.3,16,23.3z"/>
	<path class="st5" d="M16.5,23.3c0.7-0.8,1.5-1.5,2.2-2.3c0,0,0.1,0,0.1,0c0.5,0,0.9,0,1.4,0c0,0.1,0,0.2-0.1,0.3
		c-0.7,0.7-1.3,1.4-2.1,2c0,0-0.1,0-0.1,0C17.4,23.4,16.9,23.3,16.5,23.3z"/>
	<path class="st1" d="M17.9,23.3c0.7-0.8,1.5-1.5,2.2-2.3c0,0,0.1,0,0.1,0c0.1,0,0.3,0,0.4,0c0,0.1,0,0.2-0.1,0.3
		c-0.7,0.7-1.4,1.4-2.1,2.1c0,0-0.1,0-0.1,0C18.1,23.5,18,23.5,17.9,23.3z"/>
	<path class="st2" d="M17.9,23.3c0.1,0,0.3,0,0.4,0c0,0.1,0,0.2-0.1,0.3c-0.7,0.7-1.3,1.4-2.1,2c0,0-0.1,0-0.1,0c-0.1,0-0.3,0-0.4,0
		C16.3,24.9,17.1,24.1,17.9,23.3C17.9,23.4,17.9,23.3,17.9,23.3z"/>
	<path class="st5" d="M16,25.7c0,0,0.1,0,0.1,0c0.4-0.2,0.8-0.1,1.2-0.1c0.2,0.1,0.2,0.2,0.1,0.3c-0.7,0.7-1.3,1.5-2.2,2.1
		c0,0-0.1,0-0.1,0c-0.5,0-0.9,0-1.4,0C14.5,27.2,15.2,26.5,16,25.7z"/>
	<path class="st1" d="M15.2,28c0.7-0.8,1.5-1.5,2.2-2.3c0,0,0.1-0.1,0.1-0.1c0.1,0,0.2,0,0.4,0c0.1,0.1,0,0.2,0,0.3
		c-0.7,0.7-1.4,1.5-2.2,2.1c0,0-0.1,0-0.1,0C15.5,28,15.3,28,15.2,28z"/>
	<path class="st5" d="M18.6,30.4c-0.7,0.8-1.5,1.5-2.2,2.3c0,0-0.1,0-0.1,0c-0.5,0-0.9,0-1.4,0c0-0.1,0-0.2,0.1-0.2
		c0.7-0.7,1.4-1.5,2.2-2.2c0.1,0,0.1,0,0.2,0C17.8,30.2,18.2,30.1,18.6,30.4z"/>
	<path class="st1" d="M17.1,30.4c-0.7,0.8-1.5,1.5-2.2,2.3c0,0-0.1,0-0.1,0c-0.1,0-0.3,0-0.4,0c0.7-0.8,1.5-1.5,2.2-2.3
		c0,0,0.1-0.1,0.1-0.1C16.9,30.2,17,30.2,17.1,30.4z"/>
	<path class="st5" d="M15.7,28c0.7-0.8,1.5-1.5,2.2-2.3c0,0,0.1-0.1,0.1-0.1c0.4-0.1,0.8-0.1,1.2,0c0.2,0.1,0.2,0.2,0,0.3
		c-0.7,0.7-1.3,1.5-2.2,2.1c0,0-0.1,0-0.1,0C16.6,28,16.1,28,15.7,28z"/>
	<path class="st0" d="M16.8,30.3c0,0-0.1,0-0.1,0c-0.5,0-0.9,0-1.4,0c0.7-0.8,1.5-1.5,2.2-2.3c0,0,0.1-0.1,0.1-0.1
		c0.4-0.1,0.8-0.1,1.2,0c0.2,0.1,0.2,0.2,0,0.3C18.2,29,17.6,29.8,16.8,30.3z"/>
	<path class="st1" d="M17.6,28c0,0-0.1,0-0.1,0c-0.1,0-0.3,0-0.4,0c0.7-0.8,1.5-1.5,2.2-2.3c0,0,0.1-0.1,0.1-0.1c0.1,0,0.2,0,0.4,0
		c0.1,0.1,0,0.2,0,0.3C19.1,26.6,18.5,27.4,17.6,28z"/>
	<path class="st5" d="M18.4,23.3c0.7-0.8,1.5-1.5,2.2-2.3c0,0,0.1,0,0.1,0c0.5,0,0.9,0,1.4,0c0,0.1,0,0.2-0.1,0.2
		c-0.7,0.7-1.4,1.5-2.2,2.2c-0.1,0-0.1,0-0.2,0C19.2,23.5,18.8,23.6,18.4,23.3z"/>
	<path class="st1" d="M19.9,23.3c0.7-0.8,1.5-1.5,2.2-2.3c0,0,0.1,0,0.1,0c0.1,0,0.3,0,0.4,0c0,0.1,0,0.2-0.1,0.3
		c-0.7,0.7-1.4,1.4-2.1,2.1c0,0-0.1,0-0.1,0C20.1,23.5,19.9,23.5,19.9,23.3z"/>
	<path class="st1" d="M24.2,23.3c0,0-0.1,0-0.1,0c-0.1,0.1-0.2,0.1-0.3,0c-0.1-0.1-0.1-0.2,0-0.2c0.7-0.7,1.4-1.5,2.2-2.1
		c0,0,0.1,0,0.1,0c0.1,0,0.3,0,0.4,0C25.7,21.8,25,22.6,24.2,23.3z"/>
	<path class="st5" d="M20.3,23.3c0.7-0.8,1.5-1.5,2.2-2.3c0,0,0.1,0,0.1,0c0.5,0,0.9,0,1.4,0c0,0.1,0,0.2-0.1,0.2
		c-0.7,0.7-1.4,1.5-2.2,2.2c-0.1,0-0.1,0-0.2,0C21.2,23.5,20.7,23.6,20.3,23.3z"/>
	<path class="st1" d="M21.8,23.3c0.7-0.8,1.5-1.5,2.2-2.3c0,0,0.1,0,0.1,0c0.1,0,0.3,0,0.4,0c0,0.1,0,0.2-0.1,0.3
		c-0.7,0.7-1.4,1.4-2.1,2.1c0,0-0.1,0-0.1,0C22,23.5,21.9,23.5,21.8,23.3z"/>
	<path class="st5" d="M22.3,23.3c0.7-0.8,1.5-1.5,2.2-2.3c0,0,0.1,0,0.1,0c0.5,0,0.9,0,1.4,0c-0.7,0.8-1.5,1.5-2.2,2.3
		c0,0.1-0.1,0.1-0.1,0.1C23.2,23.5,22.7,23.6,22.3,23.3z"/>
	<path class="st0" d="M18.6,30.4c-0.5,0-0.9,0-1.4,0c0-0.1,0-0.2,0.1-0.3c0.7-0.7,1.3-1.4,2.1-2c0,0,0.1,0,0.1,0c0.5,0,0.9,0,1.4,0
		c-0.7,0.8-1.5,1.5-2.2,2.3C18.7,30.3,18.6,30.4,18.6,30.4z"/>
	<path class="st2" d="M23.6,23.4C23.7,23.4,23.7,23.3,23.6,23.4c0.2,0,0.4,0,0.5,0c-0.7,0.8-1.5,1.5-2.2,2.3c0,0-0.1,0-0.1,0
		c-0.1,0.1-0.2,0.1-0.3,0c-0.1-0.1-0.1-0.2,0-0.2C22.2,24.8,22.8,24,23.6,23.4z"/>
	<path class="st1" d="M21.4,25.7c0.1,0,0.3,0,0.4,0c-0.7,0.8-1.5,1.5-2.2,2.3c0,0-0.1,0-0.1,0c-0.1,0.1-0.2,0.1-0.3,0
		c-0.2-0.2,0-0.3,0.1-0.4c0.7-0.7,1.3-1.4,2.1-2C21.3,25.6,21.4,25.6,21.4,25.7z"/>
	<path class="st0" d="M18.4,23.3c0.5,0,0.9,0,1.4,0c0,0.1,0,0.2-0.1,0.3c-0.6,0.6-1.2,1.2-1.8,1.8c-0.1,0.1-0.2,0.1-0.3,0.2
		c0,0-0.1,0-0.1,0c-0.5,0-0.9,0-1.4,0c0.7-0.8,1.5-1.5,2.2-2.3C18.3,23.4,18.4,23.3,18.4,23.3z"/>
	<path class="st2" d="M17.5,25.7c0.7-0.8,1.5-1.5,2.2-2.3c0,0,0.1,0,0.1,0c0.1,0,0.3,0,0.4,0c0,0.1,0,0.2-0.1,0.3
		c-0.6,0.6-1.2,1.2-1.8,1.8c-0.1,0.1-0.2,0.1-0.3,0.2c0,0-0.1,0-0.1,0C17.8,25.7,17.7,25.7,17.5,25.7z"/>
	<path class="st2" d="M19.1,28c0.1,0,0.3,0,0.4,0c-0.7,0.8-1.5,1.5-2.2,2.3c0,0-0.1,0-0.1,0c-0.1,0-0.3,0-0.4,0
		C17.5,29.6,18.2,28.8,19.1,28C19,28,19,28,19.1,28z"/>
	<path class="st0" d="M18,25.7c0.7-0.8,1.5-1.5,2.2-2.3c0,0,0.1,0,0.1,0c0.5,0,0.9,0,1.4,0c0,0.1,0,0.2-0.1,0.3
		c-0.6,0.6-1.2,1.2-1.8,1.8c-0.1,0.1-0.2,0.1-0.3,0.2c0,0-0.1,0-0.1,0C18.9,25.7,18.5,25.7,18,25.7z"/>
	<path class="st5" d="M19.1,28C19.1,28,19,28,19.1,28c-0.6,0-1,0-1.5,0c0.7-0.8,1.5-1.5,2.2-2.3c0-0.1,0.1-0.1,0.1-0.1
		c0.4,0,0.9-0.2,1.3,0.1C20.6,26.5,19.8,27.2,19.1,28z"/>
	<path class="st2" d="M20,25.7C19.9,25.7,19.9,25.7,20,25.7c-0.2,0-0.4,0-0.5,0c0.7-0.8,1.5-1.5,2.2-2.3c0,0,0.1,0,0.1,0
		c0.1,0,0.3,0,0.4,0c0,0.1,0,0.2-0.1,0.3c-0.6,0.6-1.2,1.2-1.8,1.8C20.2,25.6,20.1,25.6,20,25.7z"/>
	<path class="st0" d="M20,25.7c0.7-0.8,1.5-1.5,2.2-2.3c0,0,0.1,0,0.1,0c0.5,0,0.9,0,1.4,0c-0.7,0.8-1.5,1.5-2.2,2.3
		c0,0-0.1,0-0.1,0C20.9,25.7,20.4,25.7,20,25.7z"/>
</g>
</svg>
